<svg width="24" height="24" viewBox="0 0 24 24" fill="none" xmlns="http://www.w3.org/2000/svg">
<g id="Icons/Key">
<g id="41_key">
<path id="Shape" fill-rule="evenodd" clip-rule="evenodd" d="M14.6333 7.10071C15.0614 8.13539 16.4108 9.38542 17.4436 9.38542C17.756 9.38542 18.0314 9.27613 18.242 9.06753C18.8627 8.44396 18.9932 7.23571 17.8135 6.05574C17.0784 5.32096 16.4098 5.16699 15.9778 5.16699C15.5266 5.16699 15.0984 5.33574 14.8037 5.63049C14.5979 5.83621 14.3019 6.30099 14.6333 7.10071ZM16.1456 7.28617C15.7933 6.87281 15.6786 6.55878 15.6718 6.44467C15.7348 6.39678 15.8403 6.35371 15.9778 6.35339C16.2713 6.35339 16.6252 6.5456 16.9746 6.89467C17.6316 7.55167 17.5683 8.01742 17.4291 8.19806C17.2009 8.18489 16.6422 7.86892 16.1456 7.28617Z" fill="#484848"/>
<path id="Shape_2" fill-rule="evenodd" clip-rule="evenodd" d="M11.5657 12.307C13.1288 13.8698 14.599 14.6624 15.9365 14.6624C17.8175 14.6624 19.3507 13.1388 20.3709 10.2566L20.4201 10.1187C20.8903 8.80179 21.5342 6.99857 19.2044 4.66854C18.0817 3.54579 16.9702 3 15.8057 3C15.0244 3 14.3515 3.24007 13.7575 3.45199L13.7549 3.45289L13.617 3.50207C11.1015 4.39275 9.64644 5.63829 9.2919 7.20429C8.94573 8.73525 9.71073 10.452 11.5657 12.307ZM15.9365 13.4757C14.9394 13.4757 13.7697 12.8184 12.4599 11.5224C12.43 11.4844 12.3959 11.45 12.3574 11.4205C10.8431 9.89239 10.2012 8.56232 10.449 7.46657C10.7711 6.04329 12.5644 5.13364 14.0127 4.62096L14.1535 4.57082L14.1544 4.57049C14.6829 4.38192 15.229 4.18704 15.8053 4.18704C16.6504 4.18704 17.4639 4.60682 18.3652 5.50811C20.1642 7.3068 19.7454 8.47904 19.3022 9.71974L19.3022 9.71979L19.252 9.86057C18.6683 11.5098 17.6192 13.4757 15.9365 13.4757Z" fill="#484848"/>
<path id="Path" fill-rule="evenodd" clip-rule="evenodd" d="M5.0425 19.8778C4.89078 19.8778 4.73875 19.82 4.62303 19.7043C4.39128 19.4725 4.39128 19.0968 4.62303 18.8653L5.67153 17.8159C5.61046 17.3671 5.60596 16.7217 5.98075 16.3469C6.51303 15.8156 7.10028 15.9419 7.41592 16.0107C7.44646 16.0175 7.48439 16.0255 7.51942 16.0319C7.5146 15.9873 7.50689 15.9352 7.50078 15.8947C7.45514 15.5916 7.37928 15.0844 7.80614 14.6565C8.2841 14.1789 8.83857 14.284 9.17028 14.3464C9.20435 14.3528 9.24614 14.3605 9.286 14.3669C9.27603 14.3354 9.26542 14.3039 9.25642 14.2773C9.1481 13.9533 8.94625 13.3503 9.45925 12.8373C9.93689 12.3596 10.492 12.465 10.8234 12.5274C10.8732 12.5367 10.9227 12.5464 10.9709 12.5534C11.2952 12.5997 11.5209 12.8999 11.4746 13.2246C11.4283 13.5492 11.1268 13.7749 10.8035 13.7279C10.7372 13.7186 10.6701 13.7064 10.6026 13.6935C10.5158 13.6771 10.3551 13.6466 10.3159 13.6614C10.3149 13.6624 10.3139 13.663 10.313 13.6633C10.3216 13.7215 10.357 13.8269 10.3817 13.9005C10.4836 14.2053 10.6736 14.7726 10.2066 15.2396C9.77842 15.6694 9.25964 15.571 8.94946 15.5125C8.863 15.4961 8.7026 15.4656 8.66307 15.4804C8.64378 15.5167 8.6621 15.6379 8.67432 15.7182C8.71835 16.0126 8.7926 16.5057 8.38375 16.9139C7.95657 17.3414 7.441 17.2299 7.16489 17.1701C6.93828 17.1206 6.89457 17.12 6.8486 17.1589C6.8126 17.2839 6.83092 17.6272 6.88942 17.8843C6.93475 18.083 6.87464 18.2913 6.73032 18.4353L5.4626 19.7036C5.34625 19.82 5.19453 19.8778 5.0425 19.8778Z" fill="#484848"/>
<path id="Path_2" fill-rule="evenodd" clip-rule="evenodd" d="M6.54311 20.8725C6.07961 20.8725 5.61611 20.696 5.26286 20.3434L3.52907 18.6093C3.18804 18.2686 3 17.8141 3 17.3294C3 16.845 3.18771 16.3905 3.52875 16.0495L10.0242 9.55467C10.2559 9.32292 10.6317 9.32292 10.8634 9.55467C11.0952 9.78674 11.0952 10.1625 10.8634 10.3939L4.368 16.8884C4.25132 17.0051 4.18704 17.1619 4.18704 17.3294C4.18704 17.4965 4.25132 17.6531 4.36832 17.7694L6.10243 19.5038C6.34543 19.7478 6.74143 19.7475 6.98443 19.5042L12.1855 14.3025C12.4172 14.0707 12.793 14.0707 13.0247 14.3025C13.2568 14.5342 13.2568 14.91 13.0247 15.1417L7.82304 20.3434C7.47011 20.696 7.00661 20.8725 6.54311 20.8725Z" fill="#484848"/>
</g>
</g>
</svg>
