<svg width="24" height="24" viewBox="0 0 24 24" fill="none" xmlns="http://www.w3.org/2000/svg">
<g id="Cylinder">
<g id="motor">
<path id="Shape" fill-rule="evenodd" clip-rule="evenodd" d="M12.4482 8.81125C13.202 8.05741 14.4287 8.05737 15.1825 8.81121C15.9383 9.5669 15.9382 10.79 15.1825 11.5455C14.4286 12.2994 13.202 12.2994 12.4482 11.5455C11.6944 10.7917 11.6944 9.5651 12.4482 8.81125ZM13.3596 10.6341C13.611 10.8854 14.0198 10.8854 14.2711 10.6341C14.5229 10.3822 14.523 9.97463 14.2711 9.72271C14.0198 9.47143 13.611 9.47138 13.3596 9.72271C13.1084 9.97395 13.1084 10.3828 13.3596 10.6341Z" fill="#484848"/>
<path id="Shape_2" fill-rule="evenodd" clip-rule="evenodd" d="M8.7621 12.5C9.51594 11.7461 10.7425 11.7461 11.4964 12.5C12.252 13.2557 12.252 14.4787 11.4964 15.2343C10.7425 15.9882 9.5159 15.9881 8.7621 15.2343C8.00636 14.4786 8.00641 13.2556 8.7621 12.5ZM9.67351 14.3228C9.92475 14.5741 10.3336 14.5742 10.5849 14.3228C10.8368 14.0709 10.8368 13.6633 10.5849 13.4114C10.3337 13.1601 9.92479 13.1601 9.67351 13.4114C9.42158 13.6633 9.42158 14.0709 9.67351 14.3228Z" fill="#484848"/>
<path id="Shape_3" fill-rule="evenodd" clip-rule="evenodd" d="M5.11613 16.1457C5.87002 15.3918 7.09665 15.3919 7.85045 16.1457C8.60433 16.8996 8.60433 18.1262 7.85045 18.88C7.09652 19.6339 5.86998 19.6339 5.11613 18.88C4.36233 18.1262 4.36233 16.8996 5.11613 16.1457ZM6.02763 17.9685C6.27887 18.2199 6.68771 18.2198 6.93904 17.9685C7.19032 17.7173 7.19032 17.3084 6.93908 17.0571C6.68716 16.8052 6.27955 16.8052 6.02763 17.0571C5.7763 17.3084 5.7763 17.7172 6.02763 17.9685Z" fill="#484848"/>
<path id="Shape_4" fill-rule="evenodd" clip-rule="evenodd" d="M16.0941 5.16563C16.8497 4.4099 18.0728 4.41002 18.8284 5.16563C19.5842 5.92132 19.5841 7.14434 18.8284 7.89995C18.0727 8.65564 16.8497 8.65555 16.0941 7.8999C15.3385 7.14438 15.3383 5.92136 16.0941 5.16563ZM17.0055 6.98849C17.2574 7.24042 17.6651 7.24038 17.917 6.98849C18.1689 6.73661 18.1689 6.32897 17.917 6.07704C17.6651 5.82516 17.2574 5.82516 17.0056 6.07704C16.7536 6.32897 16.7537 6.73661 17.0055 6.98849Z" fill="#484848"/>
<path id="Shape_5" fill-rule="evenodd" clip-rule="evenodd" d="M18.7842 1.5654L22.4299 5.21113C23.1857 5.96682 23.1855 7.18988 22.4298 7.94548L21.9425 8.43279C22.2806 9.13808 22.1699 10.0284 21.565 10.6333C20.9701 11.2282 20.082 11.3541 19.3635 11.0119L18.2968 12.0785C18.4201 12.3356 18.4851 12.6192 18.4851 12.9127C18.4852 13.4281 18.2848 13.9126 17.9209 14.2774L17.9183 14.28C17.3242 14.8741 16.4364 15 15.7178 14.6576L14.6072 15.7682C14.9497 16.4868 14.8237 17.3745 14.2296 17.9687C13.6355 18.5628 12.7477 18.6887 12.0291 18.3463L10.9615 19.4139C11.3039 20.1325 11.178 21.0202 10.5839 21.6144C9.97749 22.2207 9.08662 22.3296 8.3827 21.9927L7.94073 22.4346C7.1868 23.1885 5.96021 23.1884 5.20641 22.4346L1.56068 18.7889C0.818313 18.0465 0.818313 16.797 1.56068 16.0546L2.00335 15.6119C1.66097 14.8934 1.78683 14.0056 2.38096 13.4115C2.97513 12.8173 3.86286 12.6915 4.58147 13.0338L5.64916 11.9662C5.30674 11.2476 5.43264 10.3599 6.02677 9.76568C6.6209 9.17151 7.50863 9.0457 8.22724 9.38807L9.33756 8.27776C8.99479 7.5595 9.12048 6.67189 9.71443 6.07793L9.71753 6.07484C10.3204 5.47384 11.2089 5.35993 11.9166 5.69869L12.9835 4.63178C12.641 3.91321 12.7668 3.02552 13.3609 2.43143L13.3653 2.42709C13.971 1.82489 14.8593 1.71639 15.5623 2.05292L16.0499 1.5654C16.8037 0.811555 18.0303 0.811512 18.7842 1.5654ZM20.6527 7.89981L21.5185 7.03399C21.7704 6.78215 21.7704 6.3745 21.5184 6.12262L17.8727 2.47689C17.6215 2.22557 17.2126 2.22557 16.9612 2.47689L16.0954 3.34272C15.8555 3.58261 15.4707 3.5955 15.2153 3.37202C15.2046 3.36261 15.194 3.35273 15.1839 3.34259C14.9321 3.0907 14.5244 3.09096 14.2727 3.34272L14.2702 3.34521C14.0212 3.59653 14.0221 4.00362 14.2726 4.25417C14.5243 4.50584 14.5243 4.91387 14.2726 5.16558L12.4497 6.98844C12.2098 7.22838 11.825 7.24118 11.5697 7.01775C11.5589 7.00825 11.5484 6.99845 11.5382 6.98831C11.2864 6.73643 10.8788 6.73656 10.627 6.9884L10.6244 6.99093C10.3756 7.24144 10.3758 7.64745 10.625 7.89783C10.8782 8.14881 10.8795 8.55865 10.627 8.81122L8.76109 10.6771C8.50946 10.9288 8.10139 10.9288 7.84968 10.6771C7.59844 10.4258 7.18959 10.4257 6.93827 10.6771C6.68638 10.9289 6.68638 11.3366 6.93827 11.5885C7.18998 11.8401 7.18998 12.2482 6.93827 12.4999L5.1154 14.3227C4.86374 14.5744 4.45566 14.5744 4.20399 14.3227C3.95284 14.0715 3.54395 14.0713 3.29254 14.3227C3.04122 14.574 3.04122 14.9828 3.29254 15.2341C3.54425 15.4858 3.54425 15.8938 3.29254 16.1456L2.47222 16.9659C2.2209 17.2171 2.2209 17.626 2.47222 17.8773L6.11795 21.523C6.36919 21.7743 6.77804 21.7743 7.02936 21.523L7.84963 20.7027C8.1013 20.451 8.50955 20.4512 8.76104 20.7027C9.01233 20.954 9.42117 20.954 9.6725 20.7027C9.92382 20.4515 9.92382 20.0426 9.6725 19.7913C9.42079 19.5396 9.42079 19.1316 9.6725 18.8799L11.4954 17.057C11.747 16.8053 12.1552 16.8054 12.4068 17.057C12.6581 17.3083 13.0669 17.3082 13.3182 17.057C13.5695 16.8057 13.5695 16.3968 13.3182 16.1456C13.0665 15.8939 13.0665 15.4859 13.3182 15.2341L15.1841 13.3683C15.4108 13.1414 15.7699 13.116 16.0264 13.3084C16.0508 13.3268 16.074 13.3468 16.0956 13.3684C16.3463 13.6192 16.754 13.6196 17.0055 13.3697L17.0079 13.3673C17.1293 13.2459 17.1962 13.0844 17.1962 12.9126C17.1962 12.7408 17.1293 12.5793 17.0078 12.4578L16.999 12.4489C16.7548 12.196 16.7583 11.7941 17.0069 11.5455L18.8298 9.72263C19.0814 9.47096 19.4897 9.47109 19.7412 9.72263C19.9926 9.97404 20.4013 9.97382 20.6526 9.72263C20.9065 9.46877 20.9038 9.06233 20.6535 8.81212L20.6487 8.80718C20.4008 8.55487 20.4026 8.14993 20.6527 7.89981Z" fill="#484848"/>
</g>
</g>
</svg>
