<svg width="24" height="24" viewBox="0 0 24 24" fill="none" xmlns="http://www.w3.org/2000/svg">
<g id="drivetrain">
<g id="car-chassis">
<g id="Shape">
<path fill-rule="evenodd" clip-rule="evenodd" d="M17.4931 8.36093H18.192C18.8458 8.36093 19.3777 7.83224 19.3777 7.18236V4.17857C19.3777 3.52869 18.8458 3 18.192 3H17.4931C16.8393 3 16.3073 3.52869 16.3073 4.17857V5.26049H13.3563C13.1678 4.52763 12.498 3.98415 11.7027 3.98415C10.9074 3.98415 10.2375 4.52763 10.049 5.26049H7.09781V4.17857C7.09781 3.52869 6.5659 3 5.91215 3H5.21328C4.5594 3 4.02739 3.52869 4.02739 4.17857V7.18236C4.02739 7.83224 4.5594 8.36093 5.21333 8.36093H5.91215C6.5659 8.36093 7.09781 7.83224 7.09781 7.18236V6.10044H10.049C10.2029 6.69894 10.6779 7.17102 11.2801 7.32404V15.1643C10.7368 15.3414 10.3431 15.8499 10.3431 16.4485V17.3577H7.09781V16.2757C7.09781 15.6259 6.5659 15.0972 5.91215 15.0972H5.21328C4.55935 15.0972 4.02734 15.6259 4.02734 16.2757V19.2795C4.02734 19.9294 4.55935 20.4581 5.21328 20.4581H5.91211C6.56586 20.4581 7.09777 19.9294 7.09777 19.2795V18.1976H10.343V19.1068C10.343 19.8519 10.953 20.458 11.7026 20.458C12.4522 20.458 13.0621 19.8519 13.0621 19.1068V18.1976H16.3072V19.2795C16.3072 19.9294 16.8392 20.4581 17.4931 20.4581H18.1919C18.8458 20.4581 19.3777 19.9294 19.3777 19.2795V16.2757C19.3777 15.6259 18.8458 15.0972 18.1919 15.0972H17.4931C16.8392 15.0972 16.3072 15.6259 16.3072 16.2757V17.3577H13.0621V16.4485C13.0621 15.85 12.6685 15.3415 12.1252 15.1644V7.32409C12.7274 7.17107 13.2023 6.69894 13.3563 6.10049H16.3072V7.18241C16.3073 7.83224 16.8393 8.36093 17.4931 8.36093ZM6.25269 7.18236C6.25269 7.36903 6.09996 7.52093 5.91215 7.52093H5.21328C5.02539 7.52093 4.87247 7.36903 4.87247 7.18236V4.17857C4.87247 3.9919 5.02534 3.84 5.21328 3.84H5.91211C6.09991 3.84 6.25264 3.9919 6.25264 4.17857V7.18236H6.25269ZM5.91215 19.6182C6.09996 19.6182 6.25269 19.4663 6.25269 19.2796H6.25264V16.2758C6.25264 16.0892 6.09991 15.9373 5.91211 15.9373H5.21328C5.02534 15.9373 4.87247 16.0892 4.87247 16.2758V19.2796C4.87247 19.4663 5.02539 19.6182 5.21328 19.6182H5.91215ZM17.1524 16.2758C17.1524 16.0891 17.3052 15.9372 17.4931 15.9372H18.192C18.3798 15.9372 18.5326 16.0891 18.5326 16.2758V19.2796C18.5326 19.4662 18.3798 19.6181 18.192 19.6181H17.4931C17.3053 19.6181 17.1524 19.4662 17.1524 19.2796V16.2758ZM11.7027 19.6181C11.9863 19.6181 12.217 19.3888 12.217 19.1069V16.4485C12.217 16.1666 11.9863 15.9372 11.7027 15.9372C11.419 15.9372 11.1882 16.1666 11.1882 16.4485V19.1069C11.1882 19.3888 11.419 19.6181 11.7026 19.6181H11.7027ZM11.7326 6.53528L11.7295 6.53506C11.7206 6.53442 11.7117 6.53379 11.7027 6.53379C11.6936 6.53379 11.6847 6.53442 11.6759 6.53506L11.6728 6.53528C11.2116 6.51941 10.8411 6.14263 10.8411 5.68049C10.8411 5.20831 11.2276 4.82415 11.7027 4.82415C12.1778 4.82415 12.5642 5.20827 12.5642 5.68049C12.5642 6.14263 12.1937 6.51941 11.7326 6.53528ZM17.4931 3.84C17.3052 3.84 17.1524 3.9919 17.1524 4.17857V7.18236C17.1524 7.36903 17.3053 7.52093 17.4931 7.52093H18.192C18.3798 7.52093 18.5326 7.36903 18.5326 7.18236V4.17857C18.5326 3.9919 18.3798 3.84 18.192 3.84H17.4931Z" fill="#484848"/>
<path d="M16.3073 5.26049V5.41049H16.4573V5.26049H16.3073ZM13.3563 5.26049L13.211 5.29785L13.24 5.41049H13.3563V5.26049ZM10.049 5.26049V5.41049H10.1653L10.1942 5.29785L10.049 5.26049ZM7.09781 5.26049H6.94781V5.41049H7.09781V5.26049ZM7.09781 6.10044V5.95044H6.94781V6.10044H7.09781ZM10.049 6.10044L10.1942 6.06307L10.1653 5.95044H10.049V6.10044ZM11.2801 7.32404H11.4301V7.20739L11.3171 7.17866L11.2801 7.32404ZM11.2801 15.1643L11.3266 15.3069L11.4301 15.2732V15.1643H11.2801ZM10.3431 17.3577V17.5077H10.4931V17.3577H10.3431ZM7.09781 17.3577H6.94781V17.5077H7.09781V17.3577ZM7.09777 18.1976V18.0476H6.94777V18.1976H7.09777ZM10.343 18.1976H10.493V18.0476H10.343V18.1976ZM13.0621 18.1976V18.0476H12.9121V18.1976H13.0621ZM16.3072 18.1976H16.4572V18.0476H16.3072V18.1976ZM16.3072 17.3577V17.5077H16.4572V17.3577H16.3072ZM13.0621 17.3577H12.9121V17.5077H13.0621V17.3577ZM12.1252 15.1644H11.9752V15.2733L12.0787 15.307L12.1252 15.1644ZM12.1252 7.32409L12.0883 7.17871L11.9752 7.20744V7.32409H12.1252ZM13.3563 6.10049V5.95049H13.24L13.211 6.06312L13.3563 6.10049ZM16.3072 6.10049H16.4572V5.95049H16.3072V6.10049ZM16.3072 7.18241H16.1572V7.18242L16.3072 7.18241ZM6.25269 7.18236H6.40269V7.03236H6.25269V7.18236ZM6.25264 7.18236H6.10264V7.33236H6.25264V7.18236ZM6.25269 19.2796H6.40269V19.1296H6.25269V19.2796ZM6.25264 19.2796H6.10264V19.4296H6.25264V19.2796ZM11.7295 6.53506L11.7188 6.68468L11.7189 6.68468L11.7295 6.53506ZM11.7326 6.53528L11.7219 6.6849L11.7298 6.68546L11.7378 6.68519L11.7326 6.53528ZM11.6759 6.53506L11.6865 6.68468L11.6866 6.68468L11.6759 6.53506ZM11.6728 6.53528L11.6676 6.68519L11.6755 6.68546L11.6834 6.6849L11.6728 6.53528ZM12.5642 5.68049L12.7142 5.6805V5.68049H12.5642ZM18.192 8.21093H17.4931V8.51093H18.192V8.21093ZM19.2277 7.18236C19.2277 7.74854 18.7638 8.21093 18.192 8.21093V8.51093C18.9278 8.51093 19.5277 7.91594 19.5277 7.18236H19.2277ZM19.2277 4.17857V7.18236H19.5277V4.17857H19.2277ZM18.192 3.15C18.7638 3.15 19.2277 3.61239 19.2277 4.17857H19.5277C19.5277 3.44499 18.9278 2.85 18.192 2.85V3.15ZM17.4931 3.15H18.192V2.85H17.4931V3.15ZM16.4573 4.17857C16.4573 3.6124 16.9212 3.15 17.4931 3.15V2.85C16.7573 2.85 16.1573 3.44497 16.1573 4.17857H16.4573ZM16.4573 5.26049V4.17857H16.1573V5.26049H16.4573ZM13.3563 5.41049H16.3073V5.11049H13.3563V5.41049ZM11.7027 4.13415C12.4283 4.13415 13.0393 4.63008 13.211 5.29785L13.5016 5.22312C13.2963 4.42518 12.5676 3.83415 11.7027 3.83415V4.13415ZM10.1942 5.29785C10.366 4.63009 10.9771 4.13415 11.7027 4.13415V3.83415C10.8377 3.83415 10.109 4.42517 9.90371 5.22312L10.1942 5.29785ZM7.09781 5.41049H10.049V5.11049H7.09781V5.41049ZM6.94781 4.17857V5.26049H7.24781V4.17857H6.94781ZM5.91215 3.15C6.48391 3.15 6.94781 3.61238 6.94781 4.17857H7.24781C7.24781 3.44499 6.64789 2.85 5.91215 2.85V3.15ZM5.21328 3.15H5.91215V2.85H5.21328V3.15ZM4.17739 4.17857C4.17739 3.61241 4.64136 3.15 5.21328 3.15V2.85C4.47743 2.85 3.87739 3.44497 3.87739 4.17857H4.17739ZM4.17739 7.18236V4.17857H3.87739V7.18236H4.17739ZM5.21333 8.21093C4.64135 8.21093 4.17739 7.74852 4.17739 7.18236H3.87739C3.87739 7.91596 4.47744 8.51093 5.21333 8.51093V8.21093ZM5.91215 8.21093H5.21333V8.51093H5.91215V8.21093ZM6.94781 7.18236C6.94781 7.74855 6.48391 8.21093 5.91215 8.21093V8.51093C6.64789 8.51093 7.24781 7.91593 7.24781 7.18236H6.94781ZM6.94781 6.10044V7.18236H7.24781V6.10044H6.94781ZM10.049 5.95044H7.09781V6.25044H10.049V5.95044ZM11.3171 7.17866C10.7676 7.03905 10.3345 6.60811 10.1942 6.06307L9.90371 6.13781C10.0714 6.78977 10.5882 7.30299 11.2432 7.46942L11.3171 7.17866ZM11.4301 15.1643V7.32404H11.1301V15.1643H11.4301ZM10.4931 16.4485C10.4931 15.9175 10.8425 15.4647 11.3266 15.3069L11.2337 15.0217C10.6311 15.2181 10.1931 15.7824 10.1931 16.4485H10.4931ZM10.4931 17.3577V16.4485H10.1931V17.3577H10.4931ZM7.09781 17.5077H10.3431V17.2077H7.09781V17.5077ZM6.94781 16.2757V17.3577H7.24781V16.2757H6.94781ZM5.91215 15.2472C6.48391 15.2472 6.94781 15.7095 6.94781 16.2757H7.24781C7.24781 15.5422 6.64789 14.9472 5.91215 14.9472V15.2472ZM5.21328 15.2472H5.91215V14.9472H5.21328V15.2472ZM4.17734 16.2757C4.17734 15.7096 4.64131 15.2472 5.21328 15.2472V14.9472C4.47739 14.9472 3.87734 15.5421 3.87734 16.2757H4.17734ZM4.17734 19.2795V16.2757H3.87734V19.2795H4.17734ZM5.21328 20.3081C4.64131 20.3081 4.17734 19.8457 4.17734 19.2795H3.87734C3.87734 20.0131 4.47739 20.6081 5.21328 20.6081V20.3081ZM5.91211 20.3081H5.21328V20.6081H5.91211V20.3081ZM6.94777 19.2795C6.94777 19.8457 6.48387 20.3081 5.91211 20.3081V20.6081C6.64785 20.6081 7.24777 20.0131 7.24777 19.2795H6.94777ZM6.94777 18.1976V19.2795H7.24777V18.1976H6.94777ZM10.343 18.0476H7.09777V18.3476H10.343V18.0476ZM10.493 19.1068V18.1976H10.193V19.1068H10.493ZM11.7026 20.308C11.0349 20.308 10.493 19.7682 10.493 19.1068H10.193C10.193 19.9356 10.871 20.608 11.7026 20.608V20.308ZM12.9121 19.1068C12.9121 19.7682 12.3702 20.308 11.7026 20.308V20.608C12.5342 20.608 13.2121 19.9356 13.2121 19.1068H12.9121ZM12.9121 18.1976V19.1068H13.2121V18.1976H12.9121ZM16.3072 18.0476H13.0621V18.3476H16.3072V18.0476ZM16.4572 19.2795V18.1976H16.1572V19.2795H16.4572ZM17.4931 20.3081C16.9212 20.3081 16.4572 19.8457 16.4572 19.2795H16.1572C16.1572 20.0131 16.7572 20.6081 17.4931 20.6081V20.3081ZM18.1919 20.3081H17.4931V20.6081H18.1919V20.3081ZM19.2277 19.2795C19.2277 19.8457 18.7638 20.3081 18.1919 20.3081V20.6081C18.9277 20.6081 19.5277 20.0131 19.5277 19.2795H19.2277ZM19.2277 16.2757V19.2795H19.5277V16.2757H19.2277ZM18.1919 15.2472C18.7638 15.2472 19.2277 15.7096 19.2277 16.2757H19.5277C19.5277 15.5422 18.9277 14.9472 18.1919 14.9472V15.2472ZM17.4931 15.2472H18.1919V14.9472H17.4931V15.2472ZM16.4572 16.2757C16.4572 15.7096 16.9212 15.2472 17.4931 15.2472V14.9472C16.7572 14.9472 16.1572 15.5421 16.1572 16.2757H16.4572ZM16.4572 17.3577V16.2757H16.1572V17.3577H16.4572ZM13.0621 17.5077H16.3072V17.2077H13.0621V17.5077ZM12.9121 16.4485V17.3577H13.2121V16.4485H12.9121ZM12.0787 15.307C12.5628 15.4648 12.9121 15.9176 12.9121 16.4485H13.2121C13.2121 15.7825 12.7742 15.2182 12.1717 15.0218L12.0787 15.307ZM11.9752 7.32409V15.1644H12.2752V7.32409H11.9752ZM13.211 6.06312C13.0708 6.60813 12.6376 7.0391 12.0883 7.17871L12.1622 7.46947C12.8171 7.30303 13.3338 6.78975 13.5015 6.13786L13.211 6.06312ZM16.3072 5.95049H13.3563V6.25049H16.3072V5.95049ZM16.4572 7.18241V6.10049H16.1572V7.18241H16.4572ZM17.4931 8.21093C16.9212 8.21093 16.4573 7.74852 16.4572 7.1824L16.1572 7.18242C16.1573 7.91596 16.7573 8.51093 17.4931 8.51093V8.21093ZM5.91215 7.67093C6.18199 7.67093 6.40269 7.45267 6.40269 7.18236H6.10269C6.10269 7.28538 6.01792 7.37093 5.91215 7.37093V7.67093ZM5.21328 7.67093H5.91215V7.37093H5.21328V7.67093ZM4.72247 7.18236C4.72247 7.45281 4.94349 7.67093 5.21328 7.67093V7.37093C5.10729 7.37093 5.02247 7.28524 5.02247 7.18236H4.72247ZM4.72247 4.17857V7.18236H5.02247V4.17857H4.72247ZM5.21328 3.69C4.94342 3.69 4.72247 3.90813 4.72247 4.17857H5.02247C5.02247 4.07567 5.10725 3.99 5.21328 3.99V3.69ZM5.91211 3.69H5.21328V3.99H5.91211V3.69ZM6.40264 4.17857C6.40264 3.90825 6.18195 3.69 5.91211 3.69V3.99C6.01788 3.99 6.10264 4.07555 6.10264 4.17857H6.40264ZM6.40264 7.18236V4.17857H6.10264V7.18236H6.40264ZM6.25269 7.03236H6.25264V7.33236H6.25269V7.03236ZM6.10269 19.2796C6.10269 19.3826 6.01792 19.4682 5.91215 19.4682V19.7682C6.18199 19.7682 6.40269 19.5499 6.40269 19.2796H6.10269ZM6.25264 19.4296H6.25269V19.1296H6.25264V19.4296ZM6.10264 16.2758V19.2796H6.40264V16.2758H6.10264ZM5.91211 16.0873C6.01788 16.0873 6.10264 16.1728 6.10264 16.2758H6.40264C6.40264 16.0055 6.18195 15.7873 5.91211 15.7873V16.0873ZM5.21328 16.0873H5.91211V15.7873H5.21328V16.0873ZM5.02247 16.2758C5.02247 16.1729 5.10725 16.0873 5.21328 16.0873V15.7873C4.94342 15.7873 4.72247 16.0054 4.72247 16.2758H5.02247ZM5.02247 19.2796V16.2758H4.72247V19.2796H5.02247ZM5.21328 19.4682C5.10729 19.4682 5.02247 19.3825 5.02247 19.2796H4.72247C4.72247 19.5501 4.94348 19.7682 5.21328 19.7682V19.4682ZM5.91215 19.4682H5.21328V19.7682H5.91215V19.4682ZM17.4931 15.7872C17.2233 15.7872 17.0024 16.0054 17.0024 16.2758H17.3024C17.3024 16.1728 17.3872 16.0872 17.4931 16.0872V15.7872ZM18.192 15.7872H17.4931V16.0872H18.192V15.7872ZM18.6826 16.2758C18.6826 16.0054 18.4618 15.7872 18.192 15.7872V16.0872C18.2978 16.0872 18.3826 16.1728 18.3826 16.2758H18.6826ZM18.6826 19.2796V16.2758H18.3826V19.2796H18.6826ZM18.192 19.7681C18.4618 19.7681 18.6826 19.5499 18.6826 19.2796H18.3826C18.3826 19.3826 18.2978 19.4681 18.192 19.4681V19.7681ZM17.4931 19.7681H18.192V19.4681H17.4931V19.7681ZM17.0024 19.2796C17.0024 19.55 17.2233 19.7681 17.4931 19.7681V19.4681C17.3872 19.4681 17.3024 19.3825 17.3024 19.2796H17.0024ZM17.0024 16.2758V19.2796H17.3024V16.2758H17.0024ZM12.067 19.1069C12.067 19.3051 11.9043 19.4681 11.7027 19.4681V19.7681C12.0683 19.7681 12.367 19.4725 12.367 19.1069H12.067ZM12.067 16.4485V19.1069H12.367V16.4485H12.067ZM11.7027 16.0872C11.9043 16.0872 12.067 16.2503 12.067 16.4485H12.367C12.367 16.0829 12.0683 15.7872 11.7027 15.7872V16.0872ZM11.3382 16.4485C11.3382 16.2503 11.501 16.0872 11.7027 16.0872V15.7872C11.3371 15.7872 11.0382 16.0829 11.0382 16.4485H11.3382ZM11.3382 19.1069V16.4485H11.0382V19.1069H11.3382ZM11.7026 19.4681C11.5009 19.4681 11.3382 19.3051 11.3382 19.1069H11.0382C11.0382 19.4725 11.337 19.7681 11.7026 19.7681V19.4681ZM11.7027 19.4681H11.7026V19.7681H11.7027V19.4681ZM11.7189 6.68468L11.7219 6.6849L11.7433 6.38566L11.7402 6.38544L11.7189 6.68468ZM11.7027 6.68379C11.7055 6.68379 11.7091 6.68398 11.7188 6.68468L11.7402 6.38544C11.7322 6.38487 11.718 6.38379 11.7027 6.38379V6.68379ZM11.6866 6.68468C11.6963 6.68398 11.6999 6.68379 11.7027 6.68379V6.38379C11.6874 6.38379 11.6732 6.38487 11.6651 6.38544L11.6866 6.68468ZM11.6834 6.6849L11.6865 6.68468L11.6652 6.38544L11.6621 6.38566L11.6834 6.6849ZM10.6911 5.68049C10.6911 6.22488 11.1271 6.66659 11.6676 6.68519L11.6779 6.38537C11.2961 6.37223 10.9911 6.06037 10.9911 5.68049H10.6911ZM11.7027 4.67415C11.1456 4.67415 10.6911 5.1246 10.6911 5.68049H10.9911C10.9911 5.29202 11.3096 4.97415 11.7027 4.97415V4.67415ZM12.7142 5.68049C12.7142 5.12457 12.2598 4.67415 11.7027 4.67415V4.97415C12.0958 4.97415 12.4142 5.29196 12.4142 5.68049H12.7142ZM11.7378 6.68519C12.2782 6.66659 12.7142 6.22487 12.7142 5.6805L12.4142 5.68047C12.4142 6.06038 12.1092 6.37223 11.7274 6.38537L11.7378 6.68519ZM17.3024 4.17857C17.3024 4.07563 17.3872 3.99 17.4931 3.99V3.69C17.2233 3.69 17.0024 3.90817 17.0024 4.17857H17.3024ZM17.3024 7.18236V4.17857H17.0024V7.18236H17.3024ZM17.4931 7.37093C17.3872 7.37093 17.3024 7.28528 17.3024 7.18236H17.0024C17.0024 7.45277 17.2233 7.67093 17.4931 7.67093V7.37093ZM18.192 7.37093H17.4931V7.67093H18.192V7.37093ZM18.3826 7.18236C18.3826 7.28534 18.2978 7.37093 18.192 7.37093V7.67093C18.4618 7.67093 18.6826 7.45271 18.6826 7.18236H18.3826ZM18.3826 4.17857V7.18236H18.6826V4.17857H18.3826ZM18.192 3.99C18.2978 3.99 18.3826 4.0756 18.3826 4.17857H18.6826C18.6826 3.9082 18.4618 3.69 18.192 3.69V3.99ZM17.4931 3.99H18.192V3.69H17.4931V3.99Z" fill="#484848"/>
</g>
</g>
</g>
</svg>
