<?xml version="1.0" encoding="UTF-8"?>
<svg width="19px" height="14px" viewBox="0 0 19 14" version="1.1" xmlns="http://www.w3.org/2000/svg" xmlns:xlink="http://www.w3.org/1999/xlink">
    <!-- Generator: Sketch 61.2 (89653) - https://sketch.com -->
    <title>Engine@1</title>
    <desc>Created with Sketch.</desc>
    <g id="Main-Page" stroke="none" stroke-width="1" fill="none" fill-rule="evenodd">
        <g id="Car-Details-Page---Show-More" transform="translate(-334.000000, -754.000000)">
            <g id="Engine" transform="translate(331.000000, 749.000000)">
                <rect id="Rectangle" x="0" y="0" width="24" height="24"></rect>
                <g id="26_internal_combustion_engine" transform="translate(3.000000, 5.000000)" fill="#484848" fill-rule="nonzero">
                    <path d="M4.48767973,11.8147193 L3.44671979,11.8147193 C2.76799984,11.8147193 2.21599987,11.2627193 2.21599987,10.5839994 L2.21599987,4.87551971 C2.21599987,4.19679975 2.76831983,3.64479978 3.44671979,3.64479978 L4.48767973,3.64479978 C5.16639969,3.64479978 5.7183998,4.17983975 5.7183998,4.83775971 L5.7183998,5.43967968 C5.7183998,5.76607966 5.45375967,6.03039964 5.12767969,6.03039964 C4.80159971,6.03039964 4.53695973,5.76607966 4.53695973,5.43967968 L4.53695973,4.83775971 C4.53727973,4.84255971 4.52127973,4.82623971 4.48767973,4.82623971 L3.44671979,4.82623971 C3.4207998,4.82623971 3.3974398,4.84991971 3.3974398,4.87551971 L3.3974398,10.5839994 C3.3974398,10.6095994 3.4207998,10.6332794 3.44671979,10.6332794 L4.48767973,10.6332794 C4.51359973,10.6332794 4.53695973,10.6095994 4.53695973,10.5839994 L4.53695973,7.22559957 C4.53695973,6.89919959 4.80159971,6.6348796 5.12767969,6.6348796 C5.45375967,6.6348796 5.7183998,6.89919959 5.7183998,7.22559957 L5.7183998,10.5839994 C5.71871966,11.2627193 5.16639969,11.8147193 4.48767973,11.8147193 Z" id="Path"></path>
                    <path d="M17.230719,11.8147193 L16.189759,11.8147193 C15.5113591,11.8147193 14.9587191,11.2627193 14.9587191,10.5839994 L14.9587191,7.96959952 C14.9587191,7.64319954 15.2233591,7.37887956 15.5497591,7.37887956 C15.8761591,7.37887956 16.140799,7.64319954 16.140799,7.96959952 L16.140799,10.5839994 C16.140799,10.6095994 16.163839,10.6332794 16.189759,10.6332794 L17.230719,10.6332794 C17.256639,10.6332794 17.279999,10.6095994 17.279999,10.5839994 L17.279999,4.87551971 C17.279999,4.84991971 17.256639,4.82623971 17.230719,4.82623971 L16.189759,4.82623971 C16.163839,4.82623971 16.140799,4.84991971 16.140799,4.87551971 L16.140799,6.25631963 C16.140799,6.58271961 15.8761591,6.84703959 15.5497591,6.84703959 C15.2233591,6.84703959 14.9587191,6.58271961 14.9587191,6.25631963 L14.9587191,4.87551971 C14.9587191,4.19679975 15.5113591,3.64479978 16.189759,3.64479978 L17.230719,3.64479978 C17.9094389,3.64479978 18.4617589,4.19679975 18.4617589,4.87551971 L18.4617589,10.5839994 C18.4614389,11.2627193 17.9094389,11.8147193 17.230719,11.8147193 Z" id="Path"></path>
                    <path d="M0.590719965,10.7497594 C0.264639984,10.7497594 0,10.4854394 0,10.1590394 L0,5.30079968 C0,4.9743997 0.264639984,4.71007972 0.590719965,4.71007972 C0.916799945,4.71007972 1.18143993,4.9743997 1.18143993,5.30079968 L1.18143993,10.1590394 C1.18143993,10.4854394 0.917119945,10.7497594 0.590719965,10.7497594 Z" id="Path"></path>
                    <path d="M12.4799993,1.18111993 L7.62239955,1.18111993 C7.29599957,1.18111993 7.03167958,0.916799945 7.03167958,0.590399965 C7.03167958,0.263999984 7.29599957,0 7.62239955,0 L12.4799993,0 C12.8063992,0 13.0710392,0.264319984 13.0710392,0.590719965 C13.0710392,0.917119945 12.8063992,1.18111993 12.4799993,1.18111993 Z" id="Path"></path>
                    <path d="M11.0041593,13.2438392 L6.55711961,13.2438392 C6.40031962,13.2438392 6.25023963,13.1817592 6.13951963,13.0710392 L4.52223973,11.4537593 C4.29151974,11.2230393 4.29151974,10.8489594 4.52223973,10.6182394 C4.75327972,10.3875194 5.12703969,10.3875194 5.35775968,10.6182394 L6.80223959,12.0627193 L10.7599994,12.0627193 L12.9551992,9.86783941 L12.9551992,3.3967998 L6.80159959,3.3967998 L5.36255968,4.83615971 C5.13151969,5.0668797 4.75775972,5.0668797 4.52703973,4.83615971 C4.29631974,4.60543973 4.29631974,4.23135975 4.52703973,4.00063976 L6.13919963,2.38847986 C6.24991963,2.27775986 6.40031962,2.21567987 6.55711961,2.21567987 L13.5455992,2.21567987 C13.8719992,2.21567987 14.1363192,2.47999985 14.1363192,2.80639983 L14.1363192,10.1123194 C14.1363192,10.2687994 14.0739192,10.4191994 13.9631992,10.5302394 L11.4220793,13.0710392 C11.3110393,13.1814392 11.1606393,13.2438392 11.0041593,13.2438392 Z" id="Path"></path>
                    <path d="M15.5497591,10.7027194 L13.5455992,10.7027194 C13.2191992,10.7027194 12.9545592,10.4383994 12.9545592,10.1119994 C12.9545592,9.78559942 13.2191992,9.52127943 13.5455992,9.52127943 L15.5497591,9.52127943 C15.8761591,9.52127943 16.140799,9.78559942 16.140799,10.1119994 C16.140799,10.4383994 15.8758391,10.7027194 15.5497591,10.7027194 Z" id="Path"></path>
                    <path d="M15.5497591,5.93855965 L13.5455992,5.93855965 C13.2191992,5.93855965 12.9545592,5.67423966 12.9545592,5.34783968 C12.9545592,5.0214397 13.2191992,4.75711972 13.5455992,4.75711972 L15.5497591,4.75711972 C15.8761591,4.75711972 16.140799,5.0214397 16.140799,5.34783968 C16.140799,5.67423966 15.8758391,5.93855965 15.5497591,5.93855965 Z" id="Path"></path>
                    <path d="M1.44863991,8.3206395 L0.590719965,8.3206395 C0.264639984,8.3206395 0,8.05631952 0,7.72991954 C0,7.40351956 0.264639984,7.13919957 0.590719965,7.13919957 L1.44863991,7.13919957 C1.77503989,7.13919957 2.03935988,7.40351956 2.03935988,7.72991954 C2.03935988,8.05631952 1.77503989,8.3206395 1.44863991,8.3206395 Z" id="Path"></path>
                    <path d="M10.0511994,2.03903988 C9.72479942,2.03903988 9.46047944,1.77471989 9.46047944,1.44831991 L9.46047944,0.590719965 C9.46047944,0.264319984 9.72511942,0 10.0511994,0 C10.3772794,0 10.6419194,0.264319984 10.6419194,0.590719965 L10.6419194,1.44863991 C10.6419194,1.77471989 10.3775994,2.03903988 10.0511994,2.03903988 Z" id="Path"></path>
                </g>
            </g>
        </g>
    </g>
</svg>