<svg width="24" height="24" viewBox="0 0 24 24" fill="none" xmlns="http://www.w3.org/2000/svg">
<g id="Color">
<g id="paint-bucket">
<path id="Shape" fill-rule="evenodd" clip-rule="evenodd" d="M10.7428 2.73178C11.6695 2.00627 12.9999 1.82718 14.5363 2.23059C16.1214 2.64696 17.7652 3.64568 19.165 5.04279C21.0165 6.89053 22.0741 9.21753 21.9959 11.2698V18.8892C21.9959 20.3433 21.1063 21.7031 19.6664 21.9368C17.8299 22.2347 16.2944 20.7852 16.2944 19.0142V18.5008L13.7256 21.0237C12.6674 22.0782 11.0988 22.1456 9.6582 21.7672C8.07297 21.3508 6.42899 20.3521 5.0293 18.955C3.62946 17.5579 2.62879 15.9171 2.21161 14.3351C1.76514 12.6422 2.03034 11.1999 2.95822 10.2738L3.47016 9.76638C3.29788 9.16255 3.23975 8.52004 3.30322 7.8629C3.52066 5.61159 5.34287 3.7238 7.73422 3.27241L10.7379 2.70528L10.7428 2.73178ZM7.95197 4.42129C6.06934 4.77674 4.63715 6.23812 4.4693 7.97514C4.44306 8.24637 4.44367 8.51395 4.47006 8.77543L9.07776 4.20869L7.95197 4.42129ZM12.9024 20.1919L12.899 20.1951C11.552 21.5397 8.32733 20.593 5.8577 18.1282C4.6022 16.8751 3.70972 15.4224 3.34458 14.0375C3.00858 12.7635 3.16559 11.7204 3.7851 11.1021L3.96774 10.921C4.13757 11.2069 4.33762 11.4774 4.5668 11.7293C5.44373 12.6931 6.66992 13.2724 7.96524 13.3441C8.04947 13.5864 8.18833 13.8141 8.38196 14.0072C9.06708 14.6912 10.1819 14.6912 10.8672 14.0072C11.5523 13.3234 11.5523 12.2108 10.8672 11.527C10.182 10.8431 9.06708 10.8431 8.38196 11.527C8.1929 11.7155 8.05634 11.937 7.97165 12.1729C7.00394 12.1043 6.09085 11.665 5.43411 10.9431C5.19028 10.6753 4.98963 10.379 4.8346 10.062L9.51035 5.42778C9.50455 5.91404 9.57382 6.43518 9.72107 6.98206C10.1358 8.52293 11.1362 10.1421 12.538 11.541L15.7745 14.7713C16.105 15.1011 16.2946 15.554 16.2946 16.0136V16.8605L12.9024 20.1919ZM10.0386 12.3538C9.80972 12.1252 9.43909 12.1254 9.21021 12.3538C8.98132 12.5822 8.98132 12.952 9.21021 13.1806C9.43863 13.4086 9.81018 13.4086 10.0388 13.1806C10.267 12.9526 10.267 12.5816 10.0386 12.3538ZM20.8244 18.8892C20.8244 19.7216 20.3621 20.6393 19.4785 20.7828C18.3723 20.9623 17.466 20.0809 17.466 19.0144V16.0136C17.466 15.2461 17.1513 14.492 16.6028 13.9445C16.6028 13.9445 13.0634 10.4036 12.9211 10.245H19.218C19.6457 10.245 20.0246 10.3975 20.314 10.6859C20.6432 11.0138 20.8243 11.4812 20.8243 12.0017V18.8892H20.8244ZM12.0032 9.07575H19.2188C19.6994 9.07575 20.1585 9.19514 20.5605 9.41946C20.1773 8.19185 19.3999 6.93058 18.3368 5.86957C15.867 3.40475 12.6427 2.45812 11.2953 3.80254C10.2412 4.85471 10.5939 7.0017 12.0032 9.07575Z" fill="#484848"/>
<path id="Path" fill-rule="evenodd" clip-rule="evenodd" d="M18.5977 15.5079C18.5977 15.1844 18.8599 14.9221 19.1834 14.9221C19.507 14.9221 19.7692 15.1844 19.7692 15.5079V18.4287C19.7692 18.7522 19.507 19.0145 19.1834 19.0145C18.8599 19.0145 18.5977 18.7522 18.5977 18.4287V15.5079Z" fill="#484848"/>
</g>
</g>
</svg>
