<svg width="24" height="24" viewBox="0 0 24 24" fill="none" xmlns="http://www.w3.org/2000/svg">
<g id="Icons/fuel">
<g id="49_fuel">
<path id="Path" fill-rule="evenodd" clip-rule="evenodd" d="M14.8562 21.8988H4.57914C4.25945 21.8988 4 21.6282 4 21.2944V8.97026C4 5.67834 6.56502 3 9.71765 3C12.87 3 15.435 5.67834 15.435 8.97026V19.6417C15.435 19.9758 15.1758 20.2464 14.8558 20.2464C14.5358 20.2464 14.2764 19.9758 14.2764 19.6417V8.97026C14.2764 6.34498 12.2312 4.20945 9.71733 4.20945C7.20345 4.20945 5.15827 6.34498 5.15827 8.97026V20.6897H14.8558C15.1758 20.6897 15.435 20.9602 15.435 21.2944C15.435 21.6285 15.1758 21.8988 14.8562 21.8988Z" fill="#484848"/>
<path id="Shape" fill-rule="evenodd" clip-rule="evenodd" d="M7.92656 10.0975H11.5103C12.3485 10.0975 13.0306 9.38528 13.0306 8.50997C13.0306 7.63466 12.3485 6.92249 11.5103 6.92249H7.92656C7.08829 6.92249 6.40625 7.63466 6.40625 8.50997C6.40625 9.38528 7.08829 10.0975 7.92656 10.0975ZM7.56452 8.50997C7.56452 8.30523 7.73049 8.13193 7.92656 8.13193H11.5103C11.7066 8.13193 11.8723 8.30523 11.8723 8.50997C11.8723 8.71471 11.7063 8.888 11.5103 8.888H7.92656C7.73017 8.888 7.56452 8.71471 7.56452 8.50997Z" fill="#484848"/>
<path id="Shape_2" fill-rule="evenodd" clip-rule="evenodd" d="M7.45563 16.9214C7.83743 17.8783 8.70457 18.4725 9.71884 18.4725C10.7337 18.4725 11.6015 17.8783 11.983 16.9211C12.5857 15.4099 11.893 13.4002 10.1298 11.5454C9.9121 11.3171 9.52496 11.3171 9.30755 11.5454C7.54504 13.4002 6.85265 15.4103 7.45563 16.9214ZM8.52512 16.4566C8.23178 15.7208 8.41563 14.4173 9.71916 12.8577C11.023 14.4173 11.2072 15.7205 10.9138 16.4562C10.7093 16.9692 10.2738 17.2634 9.71884 17.2634C9.1648 17.2634 8.72935 16.9689 8.52512 16.4566Z" fill="#484848"/>
<path id="Path_2" fill-rule="evenodd" clip-rule="evenodd" d="M18.0494 12.8882C18.0036 12.8882 17.9631 12.8875 17.9292 12.8862C16.7421 12.8489 16.5109 12.3061 16.4785 11.9854C16.2367 9.57695 17.1411 7.4365 17.1797 7.34641C17.2086 7.27959 17.2491 7.21833 17.2986 7.16624L18.5105 5.90078C18.7371 5.66459 19.1038 5.66459 19.3297 5.90078C19.5556 6.13696 19.5559 6.51991 19.3297 6.7561L18.1987 7.93672C18.0469 8.33376 17.4956 9.91174 17.612 11.6398C17.8586 11.6971 18.3264 11.6889 18.5909 11.625C18.588 11.2693 18.5363 10.6213 18.472 10.0444L18.0952 9.57302C17.89 9.31684 17.9223 8.93553 18.168 8.72096C18.413 8.50705 18.7782 8.54046 18.9836 8.79729L19.4715 9.40628C19.543 9.49538 19.5879 9.60414 19.6017 9.71977C19.6509 10.1352 19.805 11.53 19.724 12.0414C19.6029 12.8014 18.53 12.8882 18.0494 12.8882Z" fill="#484848"/>
<path id="Path_3" fill-rule="evenodd" clip-rule="evenodd" d="M16.3089 15.9655C16.0115 15.9655 15.7583 15.7274 15.7326 15.4122C15.7053 15.0794 15.9419 14.7865 16.2606 14.758C16.2979 14.7525 17.4584 14.5693 17.4584 12.2825C17.4584 11.9483 17.7176 11.6777 18.0376 11.6777C18.3576 11.6777 18.6167 11.9483 18.6167 12.2825C18.6167 15.0345 17.14 15.8934 16.3594 15.9632C16.3422 15.9645 16.3256 15.9655 16.3089 15.9655Z" fill="#484848"/>
</g>
</g>
</svg>
