<svg width="24" height="24" viewBox="0 0 24 24" fill="none" xmlns="http://www.w3.org/2000/svg">
<g id="Car Key">
<g id="car-key (1)">
<g id="Shape">
<path fill-rule="evenodd" clip-rule="evenodd" d="M14.7221 12.7997C14.4186 13.1267 14.0059 13.3186 13.5899 13.3262C13.2554 13.3375 12.9309 13.2114 12.6928 12.9773L11.0285 11.3117C10.7945 11.0727 10.6688 10.7489 10.6805 10.4154C10.6881 10 10.8796 9.58775 11.2059 9.28426L15.028 5.7299C15.3741 5.40806 15.8018 5.24466 16.2091 5.24466C16.5683 5.23931 16.9145 5.37809 17.1697 5.62969L18.3738 6.83485C18.9222 7.3836 18.8783 8.32351 18.2737 8.9746L14.7221 12.7997ZM16.8559 5.94011C16.4762 5.56012 15.8061 5.60907 15.3303 6.05159L14.6623 6.67274L17.3298 9.34238L17.9487 8.67584C18.392 8.19842 18.4407 7.52627 18.06 7.14532L16.8559 5.94011ZM14.3389 6.97352L17.0293 9.66609L15.4646 11.3513L12.655 8.53945L14.3389 6.97352ZM11.5081 9.60595C11.2688 9.82853 11.1284 10.1265 11.123 10.4235C11.114 10.6377 11.1933 10.8464 11.3424 11.0011L13.0067 12.6667C13.1557 12.8113 13.3569 12.8903 13.565 12.886H13.582C13.8779 12.8806 14.1751 12.7402 14.3973 12.5009L15.164 11.675L12.3316 8.84019L11.5081 9.60595Z" fill="#484848"/>
<path d="M13.5899 13.3262L13.585 13.0562L13.5808 13.0564L13.5899 13.3262ZM14.7221 12.7997L14.5243 12.616L14.5243 12.616L14.7221 12.7997ZM12.6928 12.9773L12.5018 13.1682L12.5035 13.1699L12.6928 12.9773ZM11.0285 11.3117L10.8355 11.5006L10.8375 11.5026L11.0285 11.3117ZM10.6805 10.4154L10.9503 10.4248L10.9504 10.4203L10.6805 10.4154ZM11.2059 9.28426L11.0221 9.08654L11.0221 9.08655L11.2059 9.28426ZM15.028 5.7299L15.2119 5.92762L15.2119 5.92761L15.028 5.7299ZM16.2091 5.24466V5.51469L16.2131 5.51463L16.2091 5.24466ZM17.1697 5.62969L17.3607 5.43884L17.3592 5.43743L17.1697 5.62969ZM18.3738 6.83485L18.1829 7.02569L18.1829 7.0257L18.3738 6.83485ZM18.2737 8.9746L18.0759 8.79088L18.0759 8.79089L18.2737 8.9746ZM15.3303 6.05159L15.5142 6.24933L15.5142 6.24929L15.3303 6.05159ZM16.8559 5.94011L17.0469 5.74928L17.0469 5.74926L16.8559 5.94011ZM14.6623 6.67274L14.4784 6.475L14.2734 6.66559L14.4713 6.86358L14.6623 6.67274ZM17.3298 9.34238L17.1388 9.53322L17.3369 9.73151L17.5277 9.52609L17.3298 9.34238ZM17.9487 8.67584L17.7508 8.49212L17.7508 8.49213L17.9487 8.67584ZM18.06 7.14532L17.869 7.33615L17.869 7.33617L18.06 7.14532ZM17.0293 9.66609L17.2272 9.84981L17.4042 9.65922L17.2203 9.47525L17.0293 9.66609ZM14.3389 6.97352L14.5299 6.78267L14.3458 6.59841L14.1551 6.7758L14.3389 6.97352ZM15.4646 11.3513L15.2736 11.5422L15.4717 11.7404L15.6624 11.535L15.4646 11.3513ZM12.655 8.53945L12.4712 8.34173L12.2662 8.53232L12.464 8.73029L12.655 8.53945ZM11.123 10.4235L11.3928 10.4347L11.3929 10.4284L11.123 10.4235ZM11.5081 9.60595L11.3243 9.40823L11.3243 9.40824L11.5081 9.60595ZM11.3424 11.0011L11.148 11.1885L11.1514 11.192L11.3424 11.0011ZM13.0067 12.6667L12.8157 12.8576L12.8187 12.8605L13.0067 12.6667ZM13.565 12.886V12.6159L13.5593 12.616L13.565 12.886ZM13.582 12.886V13.156L13.5869 13.1559L13.582 12.886ZM14.3973 12.5009L14.5951 12.6846L14.5952 12.6846L14.3973 12.5009ZM15.164 11.675L15.3619 11.8586L15.5388 11.6681L15.355 11.4841L15.164 11.675ZM12.3316 8.84019L12.5226 8.64935L12.3384 8.46508L12.1477 8.64247L12.3316 8.84019ZM13.5948 13.5962C14.0899 13.5871 14.5706 13.3599 14.92 12.9834L14.5243 12.616C14.2666 12.8936 13.9219 13.0501 13.585 13.0562L13.5948 13.5962ZM12.5035 13.1699C12.7946 13.4559 13.1908 13.6099 13.5991 13.596L13.5808 13.0564C13.32 13.0652 13.0673 12.9668 12.882 12.7848L12.5035 13.1699ZM10.8375 11.5026L12.5018 13.1682L12.8838 12.7865L11.2195 11.1209L10.8375 11.5026ZM10.4106 10.4059C10.3963 10.8135 10.55 11.2089 10.8355 11.5006L11.2214 11.1229C11.039 10.9365 10.9412 10.6843 10.9503 10.4248L10.4106 10.4059ZM11.0221 9.08655C10.6464 9.43591 10.4196 9.91605 10.4105 10.4104L10.9504 10.4203C10.9566 10.084 11.1128 9.73959 11.3898 9.48196L11.0221 9.08655ZM14.8442 5.53218L11.0221 9.08654L11.3898 9.48198L15.2119 5.92762L14.8442 5.53218ZM16.2091 4.97466C15.7303 4.97466 15.2377 5.16619 14.8442 5.53219L15.2119 5.92761C15.5105 5.64992 15.8734 5.51466 16.2091 5.51466V4.97466ZM17.3592 5.43743C17.0524 5.1349 16.6364 4.96827 16.2051 4.97469L16.2131 5.51463C16.5002 5.51036 16.7766 5.62129 16.9801 5.82194L17.3592 5.43743ZM18.5648 6.64401L17.3607 5.43885L16.9787 5.82053L18.1829 7.02569L18.5648 6.64401ZM18.4716 9.15831C19.152 8.42547 19.238 7.31768 18.5648 6.644L18.1829 7.0257C18.6064 7.44953 18.6045 8.22155 18.0759 8.79088L18.4716 9.15831ZM14.92 12.9834L18.4716 9.15831L18.0759 8.79089L14.5243 12.616L14.92 12.9834ZM15.5142 6.24929C15.9185 5.87327 16.4186 5.88448 16.6649 6.13097L17.0469 5.74926C16.5337 5.23575 15.6937 5.34486 15.1464 5.85389L15.5142 6.24929ZM14.8461 6.87048L15.5142 6.24933L15.1465 5.85385L14.4784 6.475L14.8461 6.87048ZM17.5208 9.15154L14.8532 6.48189L14.4713 6.86358L17.1388 9.53322L17.5208 9.15154ZM17.7508 8.49213L17.1319 9.15867L17.5277 9.52609L18.1465 8.85955L17.7508 8.49213ZM17.869 7.33617C18.1165 7.58383 18.1276 8.08627 17.7508 8.49212L18.1465 8.85956C18.6563 8.31057 18.7649 7.4687 18.251 6.95446L17.869 7.33617ZM16.6649 6.13095L17.869 7.33615L18.251 6.95448L17.0469 5.74928L16.6649 6.13095ZM17.2203 9.47525L14.5299 6.78267L14.1479 7.16436L16.8383 9.85693L17.2203 9.47525ZM15.6624 11.535L17.2272 9.84981L16.8315 9.48237L15.2667 11.1676L15.6624 11.535ZM12.464 8.73029L15.2736 11.5422L15.6556 11.1605L12.846 8.34861L12.464 8.73029ZM14.1551 6.7758L12.4712 8.34173L12.8389 8.73717L14.5228 7.17123L14.1551 6.7758ZM11.3929 10.4284C11.3969 10.2125 11.5004 9.98188 11.692 9.80365L11.3243 9.40824C11.0372 9.67519 10.86 10.0405 10.853 10.4185L11.3929 10.4284ZM11.5369 10.8138C11.4388 10.712 11.3869 10.5751 11.3927 10.4347L10.8532 10.4122C10.8412 10.7004 10.9478 10.9807 11.148 11.1885L11.5369 10.8138ZM13.1977 12.4759L11.5334 10.8103L11.1514 11.192L12.8157 12.8576L13.1977 12.4759ZM13.5593 12.616C13.4232 12.6189 13.2918 12.5672 13.1948 12.473L12.8187 12.8605C13.0196 13.0555 13.2906 13.1618 13.5707 13.1559L13.5593 12.616ZM13.582 12.616H13.565V13.156H13.582V12.616ZM14.1994 12.3172C14.0215 12.5088 13.7917 12.6121 13.577 12.616L13.5869 13.1559C13.9642 13.149 14.3287 12.9716 14.5951 12.6846L14.1994 12.3172ZM14.9661 11.4913L14.1994 12.3172L14.5952 12.6846L15.3619 11.8586L14.9661 11.4913ZM12.1406 9.03103L14.973 11.8658L15.355 11.4841L12.5226 8.64935L12.1406 9.03103ZM11.692 9.80367L12.5154 9.03791L12.1477 8.64247L11.3243 9.40823L11.692 9.80367Z" fill="#484848"/>
</g>
<g id="Shape_2">
<path fill-rule="evenodd" clip-rule="evenodd" d="M3.2071 20.8054C3.38184 20.9782 3.63747 21.0421 3.87353 20.9721L5.30529 20.5575C5.34126 20.5471 5.37397 20.5277 5.40037 20.5013L6.25526 19.6459C6.26976 19.6314 6.28217 19.615 6.29214 19.5971L6.90619 18.4905L7.57679 18.2865C7.61163 18.2759 7.64331 18.2569 7.66899 18.2312L9.13199 16.7671C9.16404 16.735 9.18537 16.694 9.1931 16.6494L9.2929 16.0753H9.71481C9.77373 16.0753 9.8302 16.0519 9.87174 16.0103L10.9847 14.8965L11.581 15.4933C12.0095 15.923 12.5964 16.159 13.2047 16.1459C13.8129 16.1328 14.3891 15.8719 14.7985 15.4242L20.3473 9.37165C21.2453 8.39403 21.2129 6.88689 20.2735 5.94847L18.0547 3.72762C17.1208 2.78679 15.6046 2.7542 14.6307 3.65402L8.58329 9.20737C8.13581 9.61936 7.87574 10.1945 7.86272 10.801C7.84969 11.4074 8.08483 11.9931 8.51421 12.4237L9.06989 12.9799L7.94688 14.1038C7.92741 14.1233 7.91177 14.1462 7.90078 14.1715L7.6542 14.7376L7.0383 15.0311C6.96149 15.0677 6.91262 15.1449 6.91261 15.2297V15.6135L6.36133 15.7389C6.32053 15.7482 6.28321 15.7688 6.25371 15.7983L5.3989 16.6538C5.36203 16.6907 5.33949 16.7394 5.33528 16.7913L5.29973 17.2297L4.79506 17.3159C4.74975 17.3236 4.708 17.3452 4.6756 17.3777L3.47559 18.5786C3.44835 18.6059 3.42876 18.6398 3.41879 18.6769L3.02447 20.1401C2.95838 20.3784 3.02843 20.6336 3.2071 20.8054ZM8.82806 12.1133C8.48343 11.7675 8.29471 11.2973 8.30514 10.8105C8.31557 10.3236 8.52426 9.86183 8.88338 9.53097L14.9308 3.97762C15.7301 3.23914 16.9744 3.2659 17.7409 4.03805L19.9599 6.25889C20.7325 7.03094 20.7591 8.27076 20.0203 9.0749L14.4714 15.1271C14.1445 15.4871 13.6823 15.6964 13.1947 15.7053C13.1815 15.7056 13.1684 15.7058 13.1553 15.7058C12.6816 15.7069 12.2273 15.5184 11.8948 15.1825L8.82806 12.1133ZM3.83104 18.8475L3.45199 20.2541C3.42855 20.3388 3.45338 20.4294 3.51675 20.4905C3.57767 20.5513 3.66725 20.5738 3.7499 20.5492L5.12687 20.1505L5.91943 19.3573L6.56199 18.1997C6.5898 18.1497 6.63609 18.1123 6.69107 18.0957L7.39401 17.8811L8.76865 16.5053L8.88829 15.8169C8.90663 15.7114 8.99866 15.6343 9.10633 15.6343H9.62265L10.6726 14.5836L9.38175 13.292L8.29009 14.3845L8.02724 14.988C8.00605 15.0366 7.9679 15.0761 7.91981 15.099L7.35506 15.3681V15.7888C7.35506 15.8915 7.28371 15.9806 7.18309 16.0035L6.52227 16.1539L5.76991 16.907L5.72709 17.4354C5.71898 17.5357 5.64362 17.6177 5.54398 17.6347L4.93966 17.738L3.83104 18.8475Z" fill="#484848"/>
<path d="M3.87353 20.9721L3.79842 20.7127L3.79677 20.7132L3.87353 20.9721ZM3.2071 20.8054L3.39693 20.6134L3.39425 20.6108L3.2071 20.8054ZM5.30529 20.5575L5.23023 20.2981L5.23019 20.2981L5.30529 20.5575ZM5.40037 20.5013L5.2094 20.3104L5.20931 20.3105L5.40037 20.5013ZM6.25526 19.6459L6.06453 19.4548L6.06428 19.455L6.25526 19.6459ZM6.29214 19.5971L6.52798 19.7286L6.52822 19.7281L6.29214 19.5971ZM6.90619 18.4905L6.82758 18.2322L6.7231 18.264L6.67011 18.3595L6.90619 18.4905ZM7.57679 18.2865L7.49828 18.0281L7.49818 18.0282L7.57679 18.2865ZM7.66899 18.2312L7.478 18.0403L7.47797 18.0403L7.66899 18.2312ZM9.13199 16.7671L8.94107 16.5762L8.94101 16.5762L9.13199 16.7671ZM9.1931 16.6494L8.92709 16.6032L8.92708 16.6032L9.1931 16.6494ZM9.2929 16.0753V15.8053H9.06579L9.02689 16.029L9.2929 16.0753ZM9.71481 16.0753V16.3453H9.71482L9.71481 16.0753ZM9.87174 16.0103L9.68074 15.8195L9.68074 15.8195L9.87174 16.0103ZM10.9847 14.8965L11.1757 14.7056L10.9847 14.5145L10.7937 14.7056L10.9847 14.8965ZM11.581 15.4933L11.7722 15.3027L11.772 15.3025L11.581 15.4933ZM14.7985 15.4242L14.5994 15.2418L14.5992 15.242L14.7985 15.4242ZM20.3473 9.37165L20.1485 9.18899L20.1483 9.18919L20.3473 9.37165ZM20.2735 5.94847L20.0825 6.1393L20.0827 6.13948L20.2735 5.94847ZM18.0547 3.72762L17.8631 3.91784L17.8637 3.91845L18.0547 3.72762ZM14.6307 3.65402L14.8133 3.85289L14.8139 3.85233L14.6307 3.65402ZM8.58329 9.20737L8.40067 9.0085L8.40041 9.00874L8.58329 9.20737ZM8.51421 12.4237L8.32302 12.6144L8.32322 12.6146L8.51421 12.4237ZM9.06989 12.9799L9.26088 13.1707L9.45157 12.9799L9.26088 12.789L9.06989 12.9799ZM7.94688 14.1038L7.75589 13.9129L7.7558 13.913L7.94688 14.1038ZM7.90078 14.1715L7.65325 14.0636L7.65324 14.0636L7.90078 14.1715ZM7.6542 14.7376L7.77037 14.9813L7.86145 14.9379L7.90174 14.8454L7.6542 14.7376ZM7.0383 15.0311L7.15446 15.2749L7.15447 15.2748L7.0383 15.0311ZM6.91261 15.2297L6.64261 15.2297V15.2297H6.91261ZM6.91261 15.6135L6.97249 15.8768L7.18261 15.829V15.6135H6.91261ZM6.36133 15.7389L6.30145 15.4756L6.30144 15.4756L6.36133 15.7389ZM6.25371 15.7983L6.06271 15.6075L6.06271 15.6075L6.25371 15.7983ZM5.3989 16.6538L5.2079 16.463L5.20788 16.463L5.3989 16.6538ZM5.33528 16.7913L5.06616 16.7695V16.7695L5.33528 16.7913ZM5.29973 17.2297L5.3452 17.4958L5.55189 17.4605L5.56884 17.2515L5.29973 17.2297ZM4.79506 17.3159L4.84046 17.5821L4.84053 17.5821L4.79506 17.3159ZM4.6756 17.3777L4.8666 17.5685L4.86665 17.5685L4.6756 17.3777ZM3.47559 18.5786L3.66649 18.7696L3.66659 18.7695L3.47559 18.5786ZM3.41879 18.6769L3.67949 18.7471L3.67955 18.7469L3.41879 18.6769ZM3.02447 20.1401L3.28466 20.2123L3.28517 20.2104L3.02447 20.1401ZM8.30514 10.8105L8.57508 10.8162V10.8162L8.30514 10.8105ZM8.82806 12.1133L8.63683 12.3039L8.63707 12.3042L8.82806 12.1133ZM8.88338 9.53097L8.70076 9.3321L8.70044 9.3324L8.88338 9.53097ZM14.9308 3.97762L15.1134 4.17649L15.114 4.17593L14.9308 3.97762ZM17.7409 4.03805L17.5493 4.22827L17.5499 4.22889L17.7409 4.03805ZM19.9599 6.25889L19.7689 6.44973L19.7691 6.44989L19.9599 6.25889ZM20.0203 9.0749L19.8215 8.89223L19.8213 8.89244L20.0203 9.0749ZM14.4714 15.1271L14.2724 14.9447L14.2716 14.9456L14.4714 15.1271ZM13.1947 15.7053L13.1898 15.4354L13.1887 15.4354L13.1947 15.7053ZM13.1553 15.7058V15.4358L13.1546 15.4358L13.1553 15.7058ZM11.8948 15.1825L12.0867 14.9926L12.0858 14.9917L11.8948 15.1825ZM3.45199 20.2541L3.7122 20.3262L3.71269 20.3244L3.45199 20.2541ZM3.83104 18.8475L3.64005 18.6567L3.5891 18.7077L3.57034 18.7772L3.83104 18.8475ZM3.51675 20.4905L3.70749 20.2993L3.70414 20.2961L3.51675 20.4905ZM3.7499 20.5492L3.67481 20.2898L3.67278 20.2904L3.7499 20.5492ZM5.12687 20.1505L5.20196 20.4098L5.26873 20.3905L5.31787 20.3413L5.12687 20.1505ZM5.91943 19.3573L6.11042 19.5481L6.13715 19.5214L6.15549 19.4883L5.91943 19.3573ZM6.56199 18.1997L6.32598 18.0686L6.32592 18.0687L6.56199 18.1997ZM6.69107 18.0957L6.76951 18.354L6.7699 18.3539L6.69107 18.0957ZM7.39401 17.8811L7.47284 18.1393L7.53734 18.1196L7.58501 18.0719L7.39401 17.8811ZM8.76865 16.5053L8.95965 16.6961L9.02003 16.6357L9.03466 16.5515L8.76865 16.5053ZM8.88829 15.8169L9.1543 15.8632L9.1543 15.8632L8.88829 15.8169ZM9.10633 15.6343V15.3643H9.10631L9.10633 15.6343ZM9.62265 15.6343V15.9043H9.73455L9.81364 15.8251L9.62265 15.6343ZM10.6726 14.5836L10.8636 14.7744L11.0543 14.5835L10.8635 14.3927L10.6726 14.5836ZM9.38175 13.292L9.57273 13.1011L9.38173 12.91L9.19075 13.1011L9.38175 13.292ZM8.29009 14.3845L8.09909 14.1937L8.06296 14.2298L8.04255 14.2767L8.29009 14.3845ZM8.02724 14.988L7.77971 14.8801L7.77969 14.8802L8.02724 14.988ZM7.91981 15.099L8.03597 15.3427L8.036 15.3427L7.91981 15.099ZM7.35506 15.3681L7.2389 15.1244L7.08506 15.1977V15.3681H7.35506ZM7.35506 15.7888L7.62506 15.7888V15.7888H7.35506ZM7.18309 16.0035L7.12322 15.7402L7.12316 15.7402L7.18309 16.0035ZM6.52227 16.1539L6.46234 15.8906L6.38634 15.9079L6.33125 15.9631L6.52227 16.1539ZM5.76991 16.907L5.5789 16.7162L5.50881 16.7864L5.5008 16.8852L5.76991 16.907ZM5.72709 17.4354L5.45798 17.4136L5.45797 17.4137L5.72709 17.4354ZM5.54398 17.6347L5.58944 17.9009L5.58946 17.9009L5.54398 17.6347ZM4.93966 17.738L4.89421 17.4718L4.80944 17.4863L4.74866 17.5471L4.93966 17.738ZM3.79677 20.7132C3.65486 20.7553 3.50144 20.7167 3.39691 20.6134L3.01729 20.9975C3.26224 21.2396 3.62008 21.3289 3.95028 21.231L3.79677 20.7132ZM5.23019 20.2981L3.79842 20.7128L3.94863 21.2314L5.3804 20.8168L5.23019 20.2981ZM5.20931 20.3105C5.21523 20.3046 5.22245 20.3004 5.23023 20.2981L5.38036 20.8168C5.46007 20.7937 5.53272 20.7509 5.59143 20.6921L5.20931 20.3105ZM6.06428 19.455L5.2094 20.3104L5.59135 20.6921L6.44623 19.8367L6.06428 19.455ZM6.05629 19.4657C6.05854 19.4616 6.06132 19.458 6.06453 19.4548L6.44599 19.837C6.47821 19.8048 6.50581 19.7683 6.52798 19.7286L6.05629 19.4657ZM6.67011 18.3595L6.05605 19.4661L6.52822 19.7281L7.14228 18.6216L6.67011 18.3595ZM7.49818 18.0282L6.82758 18.2322L6.98481 18.7489L7.6554 18.5448L7.49818 18.0282ZM7.47797 18.0403C7.48373 18.0346 7.49073 18.0304 7.49828 18.0281L7.6553 18.5448C7.73254 18.5213 7.80288 18.4792 7.86001 18.422L7.47797 18.0403ZM8.94101 16.5762L7.478 18.0403L7.85998 18.422L9.32298 16.9579L8.94101 16.5762ZM8.92708 16.6032C8.92889 16.5928 8.93386 16.5834 8.94107 16.5762L9.32292 16.958C9.39421 16.8867 9.44186 16.7951 9.45913 16.6956L8.92708 16.6032ZM9.02689 16.029L8.92709 16.6032L9.45912 16.6957L9.55891 16.1215L9.02689 16.029ZM9.71481 15.8053H9.2929V16.3453H9.71481V15.8053ZM9.68074 15.8195C9.68999 15.8102 9.70227 15.8053 9.7148 15.8053L9.71482 16.3453C9.84518 16.3453 9.97042 16.2936 10.0627 16.2012L9.68074 15.8195ZM10.7937 14.7056L9.68074 15.8195L10.0627 16.2012L11.1757 15.0873L10.7937 14.7056ZM11.772 15.3025L11.1757 14.7056L10.7937 15.0873L11.39 15.6842L11.772 15.3025ZM13.1989 15.876C12.6642 15.8874 12.1484 15.68 11.7722 15.3027L11.3898 15.6839C11.8705 16.1661 12.5287 16.4305 13.2105 16.4158L13.1989 15.876ZM14.5992 15.242C14.2398 15.6351 13.7336 15.8645 13.1989 15.876L13.2105 16.4158C13.8922 16.4012 14.5384 16.1088 14.9977 15.6064L14.5992 15.242ZM20.1483 9.18919L14.5994 15.2418L14.9975 15.6067L20.5463 9.5541L20.1483 9.18919ZM20.0827 6.13948C20.9197 6.97565 20.9486 8.31799 20.1485 9.18899L20.5461 9.5543C21.5421 8.47008 21.506 6.79812 20.4644 5.75745L20.0827 6.13948ZM17.8637 3.91845L20.0825 6.1393L20.4645 5.75764L18.2457 3.53679L17.8637 3.91845ZM14.8139 3.85233C15.6811 3.05111 17.0316 3.0802 17.8631 3.91784L18.2464 3.53741C17.21 2.49338 15.5281 2.45728 14.4474 3.4557L14.8139 3.85233ZM8.76591 9.40624L14.8133 3.85289L14.448 3.45515L8.40067 9.0085L8.76591 9.40624ZM8.13266 10.8068C8.1441 10.274 8.37257 9.76839 8.76617 9.406L8.40041 9.00874C7.89906 9.47033 7.60739 10.1151 7.59278 10.7952L8.13266 10.8068ZM8.70541 12.2331C8.32777 11.8544 8.12121 11.3395 8.13266 10.8068L7.59278 10.7952C7.57817 11.4753 7.8419 12.1319 8.32302 12.6144L8.70541 12.2331ZM9.26088 12.789L8.70521 12.2329L8.32322 12.6146L8.87889 13.1707L9.26088 12.789ZM8.13788 14.2946L9.26088 13.1707L8.87889 12.789L7.75589 13.9129L8.13788 14.2946ZM8.14832 14.2793C8.14581 14.285 8.14228 14.2902 8.13797 14.2945L7.7558 13.913C7.71253 13.9563 7.67773 14.0074 7.65325 14.0636L8.14832 14.2793ZM7.90174 14.8454L8.14832 14.2793L7.65324 14.0636L7.40666 14.6297L7.90174 14.8454ZM7.15447 15.2748L7.77037 14.9813L7.53803 14.4938L6.92213 14.7874L7.15447 15.2748ZM7.18261 15.2297C7.18261 15.2496 7.17113 15.2669 7.15446 15.2749L6.92214 14.7874C6.75185 14.8685 6.64262 15.0403 6.64261 15.2297L7.18261 15.2297ZM7.18261 15.6135V15.2297H6.64261V15.6135H7.18261ZM6.4212 16.0022L6.97249 15.8768L6.85273 15.3502L6.30145 15.4756L6.4212 16.0022ZM6.4447 15.9891C6.43812 15.9957 6.42995 16.0002 6.42121 16.0022L6.30144 15.4756C6.21111 15.4962 6.1283 15.5418 6.06271 15.6075L6.4447 15.9891ZM5.58989 16.8447L6.44471 15.9891L6.06271 15.6075L5.2079 16.463L5.58989 16.8447ZM5.60439 16.8131C5.60341 16.8252 5.59816 16.8364 5.58991 16.8446L5.20788 16.463C5.12589 16.5451 5.07556 16.6536 5.06616 16.7695L5.60439 16.8131ZM5.56884 17.2515L5.60439 16.8131L5.06616 16.7695L5.03061 17.2079L5.56884 17.2515ZM4.84053 17.5821L5.3452 17.4958L5.25425 16.9635L4.74958 17.0498L4.84053 17.5821ZM4.86665 17.5685C4.85938 17.5757 4.8502 17.5804 4.84046 17.5821L4.74965 17.0498C4.64931 17.0669 4.55661 17.1147 4.48455 17.1869L4.86665 17.5685ZM3.66659 18.7695L4.8666 17.5685L4.4846 17.1868L3.28459 18.3878L3.66659 18.7695ZM3.67955 18.7469C3.67721 18.7556 3.67266 18.7634 3.66649 18.7696L3.28469 18.3877C3.22404 18.4483 3.18032 18.5239 3.15804 18.6068L3.67955 18.7469ZM3.28517 20.2104L3.67949 18.7471L3.15809 18.6066L2.76377 20.0699L3.28517 20.2104ZM3.39425 20.6108C3.28688 20.5076 3.24515 20.3547 3.28465 20.2123L2.76429 20.068C2.67162 20.4021 2.76999 20.7597 3.01995 21.0001L3.39425 20.6108ZM8.0352 10.8047C8.02319 11.3652 8.24049 11.9062 8.63683 12.3039L9.0193 11.9227C8.72638 11.6288 8.56622 11.2295 8.57508 10.8162L8.0352 10.8047ZM8.70044 9.3324C8.28747 9.71286 8.04721 10.2442 8.0352 10.8047L8.57508 10.8162C8.58393 10.403 8.76104 10.0108 9.06633 9.72954L8.70044 9.3324ZM14.7482 3.77875L8.70076 9.3321L9.06601 9.72984L15.1134 4.17649L14.7482 3.77875ZM17.9325 3.84784C17.0636 2.97249 15.6536 2.94222 14.7476 3.7793L15.114 4.17593C15.8066 3.53605 16.8852 3.55931 17.5493 4.22826L17.9325 3.84784ZM20.1509 6.06805L17.9319 3.84721L17.5499 4.22889L19.7689 6.44973L20.1509 6.06805ZM20.2191 9.25758C21.0559 8.34683 21.0257 6.9422 20.1507 6.0679L19.7691 6.44989C20.4394 7.11968 20.4624 8.19469 19.8215 8.89223L20.2191 9.25758ZM14.6705 15.3096L20.2193 9.25737L19.8213 8.89244L14.2724 14.9447L14.6705 15.3096ZM13.1997 15.9753C13.7614 15.965 14.2941 15.7239 14.6713 15.3087L14.2716 14.9456C13.9948 15.2503 13.6032 15.4278 13.1898 15.4354L13.1997 15.9753ZM13.1553 15.9758C13.1705 15.9758 13.1856 15.9756 13.2007 15.9753L13.1887 15.4354C13.1775 15.4356 13.1664 15.4358 13.1553 15.4358V15.9758ZM11.703 15.3725C12.0864 15.7598 12.6101 15.9771 13.156 15.9758L13.1546 15.4358C12.753 15.4367 12.3681 15.2769 12.0867 14.9926L11.703 15.3725ZM8.63707 12.3042L11.7038 15.3734L12.0858 14.9917L9.01906 11.9225L8.63707 12.3042ZM3.71269 20.3244L4.09174 18.9178L3.57034 18.7772L3.19129 20.1839L3.71269 20.3244ZM3.70414 20.2961C3.71187 20.3035 3.71526 20.3151 3.71219 20.3262L3.19178 20.1821C3.14183 20.3624 3.19489 20.5552 3.32936 20.6848L3.70414 20.2961ZM3.67278 20.2904C3.68479 20.2868 3.69808 20.29 3.70746 20.2993L3.32604 20.6816C3.45727 20.8125 3.64971 20.8608 3.82703 20.8079L3.67278 20.2904ZM5.05178 19.8911L3.67481 20.2898L3.825 20.8085L5.20196 20.4098L5.05178 19.8911ZM5.72843 19.1664L4.93587 19.9597L5.31787 20.3413L6.11042 19.5481L5.72843 19.1664ZM6.32592 18.0687L5.68336 19.2262L6.15549 19.4883L6.79806 18.3308L6.32592 18.0687ZM6.61264 17.8373C6.49087 17.8743 6.38795 17.957 6.32598 18.0686L6.79801 18.3309C6.79166 18.3423 6.78131 18.3504 6.7695 18.354L6.61264 17.8373ZM7.31518 17.6228L6.61224 17.8374L6.7699 18.3539L7.47284 18.1393L7.31518 17.6228ZM8.57765 16.3144L7.20301 17.6902L7.58501 18.0719L8.95965 16.6961L8.57765 16.3144ZM8.62228 15.7707L8.50264 16.459L9.03466 16.5515L9.1543 15.8632L8.62228 15.7707ZM9.10631 15.3643C8.86834 15.3643 8.66325 15.5349 8.62227 15.7707L9.1543 15.8632C9.15 15.8879 9.12898 15.9043 9.10634 15.9043L9.10631 15.3643ZM9.62265 15.3643H9.10633V15.9043H9.62265V15.3643ZM10.4816 14.3927L9.43166 15.4434L9.81364 15.8251L10.8636 14.7744L10.4816 14.3927ZM9.19077 13.4828L10.4816 14.7744L10.8635 14.3927L9.57273 13.1011L9.19077 13.4828ZM8.48109 14.5753L9.57274 13.4828L9.19075 13.1011L8.09909 14.1937L8.48109 14.5753ZM8.27478 15.0958L8.53763 14.4923L8.04255 14.2767L7.77971 14.8801L8.27478 15.0958ZM8.036 15.3427C8.14261 15.2919 8.22753 15.2043 8.2748 15.0957L7.77969 14.8802C7.78457 14.869 7.79319 14.8603 7.80362 14.8553L8.036 15.3427ZM7.47122 15.6119L8.03597 15.3427L7.80365 14.8553L7.2389 15.1244L7.47122 15.6119ZM7.62506 15.7888V15.3681H7.08506V15.7888H7.62506ZM7.24297 16.2667C7.46563 16.2161 7.62506 16.0185 7.62506 15.7888L7.08506 15.7888C7.08506 15.7646 7.10179 15.7451 7.12322 15.7402L7.24297 16.2667ZM6.58221 16.4172L7.24303 16.2667L7.12316 15.7402L6.46234 15.8906L6.58221 16.4172ZM5.96093 17.0979L6.71329 16.3447L6.33125 15.9631L5.5789 16.7162L5.96093 17.0979ZM5.99621 17.4572L6.03903 16.9288L5.5008 16.8852L5.45798 17.4136L5.99621 17.4572ZM5.58946 17.9009C5.80987 17.8632 5.97808 17.6813 5.99622 17.4572L5.45797 17.4137C5.45988 17.3901 5.47736 17.3722 5.4985 17.3686L5.58946 17.9009ZM4.98512 18.0041L5.58944 17.9009L5.49853 17.3686L4.89421 17.4718L4.98512 18.0041ZM4.02204 19.0383L5.13066 17.9288L4.74866 17.5471L3.64005 18.6567L4.02204 19.0383Z" fill="#484848"/>
</g>
</g>
</g>
</svg>
