<svg width="24" height="24" viewBox="0 0 24 24" fill="none" xmlns="http://www.w3.org/2000/svg">
<g id="Icons/meter">
<g id="23_speedometer">
<path id="Shape" fill-rule="evenodd" clip-rule="evenodd" d="M2 11.9469C2 17.4317 6.46172 21.8934 11.9469 21.8934C17.4317 21.8934 21.8934 17.4317 21.8938 11.9469C21.8938 6.46207 17.4321 2 11.9469 2C6.46172 2 2 6.46207 2 11.9469ZM3.2731 11.9469C3.2731 7.16414 7.16414 3.2731 11.9469 3.2731C16.7297 3.2731 20.6207 7.16414 20.6207 11.9469C20.6207 16.7297 16.7297 20.6207 11.9469 20.6207C7.16414 20.6207 3.2731 16.7297 3.2731 11.9469Z" fill="#484848"/>
<g id="Group">
<path id="Path" fill-rule="evenodd" clip-rule="evenodd" d="M16.9246 17.2655C16.697 17.2655 16.4763 17.1721 16.3139 17.0138C16.1553 16.8517 16.0625 16.6314 16.0625 16.4035C16.0625 16.1755 16.1556 15.9548 16.3139 15.7928C16.6349 15.4721 17.2139 15.4721 17.5346 15.7928C17.697 15.9548 17.7863 16.1755 17.7863 16.4035C17.7863 16.6314 17.6966 16.8517 17.5346 17.0138C17.3728 17.1721 17.1525 17.2655 16.9246 17.2655Z" fill="#484848"/>
<path id="Shape_2" fill-rule="evenodd" clip-rule="evenodd" d="M10.3915 4.56519C9.92636 4.66519 9.62636 5.12036 9.72291 5.58588C9.80911 5.99278 10.1681 6.27209 10.5674 6.27209C10.626 6.27209 10.6846 6.26519 10.7467 6.25485C11.2122 6.15485 11.5088 5.69967 11.4122 5.23416C11.3122 4.76864 10.8574 4.46864 10.3915 4.56519ZM13.1608 6.25829V6.25485C12.6953 6.15829 12.3988 5.69967 12.4988 5.23416C12.5953 4.76864 13.0539 4.47209 13.5195 4.57209C13.985 4.66864 14.285 5.12726 14.185 5.59278C14.0988 5.99967 13.7401 6.27554 13.3405 6.27554C13.2815 6.27554 13.2229 6.26864 13.1608 6.25829ZM7.5267 5.83416C7.1436 6.11347 7.05739 6.65485 7.33705 7.0376C7.50222 7.27209 7.76808 7.39623 8.03325 7.39623C8.20911 7.39623 8.38532 7.34105 8.54015 7.23071C8.92325 6.9514 9.01291 6.41347 8.7336 6.02726C8.45394 5.64105 7.91291 5.55485 7.5267 5.83416ZM15.3681 7.24105H15.3643C14.9819 6.96174 14.8957 6.42036 15.1746 6.0376C15.4574 5.6514 15.9953 5.56519 16.3815 5.84795C16.7643 6.12726 16.8505 6.66519 16.5712 7.0514C16.4026 7.28243 16.1401 7.40657 15.8715 7.40657C15.6953 7.40657 15.5195 7.3514 15.3681 7.24105ZM5.4267 8.15485C5.18843 8.56519 5.3267 9.09278 5.7367 9.33416C5.87463 9.41347 6.02291 9.4514 6.17153 9.4514C6.46774 9.4514 6.75739 9.29623 6.91601 9.02381C7.15774 8.61002 7.01601 8.08243 6.60601 7.8445C6.19532 7.60312 5.66808 7.74105 5.4267 8.15485ZM16.985 9.03416C16.7436 8.62381 16.885 8.09623 17.2988 7.85829C17.7091 7.62036 18.2367 7.75829 18.4746 8.17209C18.7122 8.58243 18.5746 9.11002 18.1608 9.34795C18.0264 9.42726 17.8781 9.46519 17.7298 9.46519C17.4333 9.46519 17.1436 9.31002 16.985 9.03416ZM4.45049 11.1307C4.39877 11.6031 4.74015 12.0273 5.21256 12.079C5.2436 12.0824 5.27463 12.0859 5.30567 12.0859C5.74049 12.0859 6.11601 11.7583 6.16429 11.3135C6.21222 10.8411 5.87118 10.4169 5.39877 10.3652C4.92636 10.3135 4.49877 10.6548 4.45049 11.1307ZM17.7333 11.3307C17.6819 10.8548 18.0267 10.4307 18.4991 10.3824C18.9712 10.3342 19.3957 10.6755 19.4474 11.1479C19.4957 11.6238 19.1539 12.0479 18.6784 12.0962C18.6474 12.0997 18.6198 12.0997 18.5888 12.0997C18.1543 12.0997 17.7781 11.7721 17.7333 11.3307ZM5.31946 13.1617C4.86808 13.3066 4.61601 13.7897 4.76084 14.2448C4.87843 14.61 5.21601 14.8445 5.58187 14.8445C5.67153 14.8445 5.75774 14.8307 5.84739 14.8031C6.29877 14.6583 6.55084 14.1721 6.40601 13.7204H6.40256C6.25774 13.2655 5.77463 13.0169 5.31946 13.1617ZM17.4853 13.7342C17.337 14.1862 17.5884 14.6721 18.0405 14.8173C18.1298 14.8483 18.216 14.8617 18.306 14.8617C18.6681 14.8617 19.0095 14.6276 19.1267 14.2617C19.2715 13.81 19.0233 13.3242 18.5681 13.1793C18.1164 13.0307 17.6301 13.279 17.4853 13.7342Z" fill="#484848"/>
<path id="Path_2" fill-rule="evenodd" clip-rule="evenodd" d="M6.97144 17.2655C6.74386 17.2655 6.51972 17.1721 6.3611 17.0138C6.19869 16.8517 6.10938 16.6314 6.10938 16.4035C6.10938 16.1755 6.19903 15.9548 6.3611 15.7928C6.67834 15.4721 7.25765 15.4721 7.578 15.7928C7.74041 15.9548 7.83317 16.1755 7.83317 16.4035C7.83317 16.6314 7.74006 16.8517 7.58179 17.0138C7.41972 17.1721 7.19558 17.2655 6.97144 17.2655Z" fill="#484848"/>
</g>
<path id="Path_3" fill-rule="evenodd" clip-rule="evenodd" d="M6.60597 20.2059C6.37356 20.2059 6.14977 20.0783 6.0377 19.8569C5.87873 19.5431 6.0039 19.16 6.31804 19.001C9.68563 17.2955 14.2115 17.2948 17.5787 19.0004C17.8922 19.159 18.0177 19.5417 17.8591 19.8555C17.7001 20.1693 17.3177 20.2945 17.0036 20.1359C13.9798 18.6052 9.91735 18.6055 6.89321 20.1372C6.80046 20.1835 6.70252 20.2059 6.60597 20.2059Z" fill="#484848"/>
<path id="Path_4" fill-rule="evenodd" clip-rule="evenodd" d="M11.9454 12.5831C11.7823 12.5831 11.6195 12.521 11.4951 12.3965C11.2464 12.1482 11.2464 11.7451 11.4951 11.4965L14.8261 8.16548C15.0747 7.91652 15.4782 7.91652 15.7264 8.16548C15.9751 8.4141 15.9751 8.81721 15.7264 9.06548L12.3954 12.3965C12.2713 12.5213 12.1082 12.5831 11.9454 12.5831Z" fill="#484848"/>
<path id="Path_5" fill-rule="evenodd" clip-rule="evenodd" d="M11.9491 13.1551C11.6315 13.1551 11.3215 13.0237 11.0939 12.7999C10.8698 12.5761 10.7422 12.2655 10.7422 11.9482C10.7422 11.6275 10.8694 11.3172 11.0939 11.093C11.5456 10.6448 12.3525 10.6448 12.8008 11.093C13.0284 11.3172 13.156 11.631 13.156 11.9482C13.156 12.2655 13.0284 12.5761 12.8008 12.7999C12.5763 13.0237 12.2663 13.1551 11.9491 13.1551Z" fill="#484848"/>
<path id="Path_6" fill-rule="evenodd" clip-rule="evenodd" d="M13.7017 16.6606H10.1951C9.84342 16.6606 9.55859 16.3755 9.55859 16.0237C9.55859 15.672 9.84342 15.3868 10.1951 15.3868H13.7017C14.0534 15.3868 14.3382 15.672 14.3382 16.0237C14.3382 16.3755 14.0531 16.6606 13.7017 16.6606Z" fill="#484848"/>
</g>
</g>
</svg>
