<svg width="24" height="24" viewBox="0 0 24 24" fill="none" xmlns="http://www.w3.org/2000/svg">
<g id="Icons/Type">
<g id="car (4)">
<g id="Shape">
<path fill-rule="evenodd" clip-rule="evenodd" d="M20.0487 9.79089L21.8123 10.6234C22.5096 10.9537 22.9595 11.6793 22.955 12.4746V13.9862C22.955 15.1072 22.0912 16.0328 21.007 16.0328H20.4671C20.2421 16.9397 19.5538 17.6467 18.6765 17.8839C17.3403 18.2421 15.9771 17.4141 15.6307 16.0328H8.07239C7.84744 16.9397 7.1591 17.6467 6.2818 17.8839C4.9456 18.2421 3.58241 17.4141 3.23599 16.0328H2.94806C1.8638 16.0328 1 15.1072 1 13.9862V12.6607C1 11.749 1.58937 10.9444 2.43967 10.7025L5.79141 9.75368L7.80245 7.03275C8.27035 6.40019 8.99918 6.03275 9.76851 6.03275H16.4C17.2503 6.0281 18.0421 6.47926 18.492 7.22345L20.0487 9.79089ZM4.05481 15.3769C4.05481 16.2886 4.77014 17.0281 5.65194 17.0281C6.53824 17.0234 7.25358 16.2839 7.24908 15.3769C7.24908 14.4653 6.53374 13.7258 5.65194 13.7258C4.77014 13.7258 4.05481 14.4653 4.05481 15.3769ZM18.0466 17.0281C17.1648 17.0281 16.4495 16.2886 16.4495 15.3769C16.4495 14.4653 17.1648 13.7258 18.0466 13.7258C18.9284 13.7258 19.6438 14.4653 19.6438 15.3769C19.6483 16.2839 18.9329 17.0234 18.0466 17.0281ZM20.5301 15.1025H21.007C21.5963 15.1025 22.0552 14.5955 22.0552 13.9862H22.0507V12.4746C22.0552 12.0421 21.8123 11.6514 21.4344 11.47L19.5538 10.5816C19.4773 10.5444 19.4053 10.4839 19.3603 10.4048L17.7317 7.71647C17.4483 7.24205 16.9399 6.95833 16.4 6.96298H9.76851C9.27812 6.96298 8.81472 7.19554 8.51329 7.59554L6.41677 10.4374C6.35828 10.5211 6.2728 10.5769 6.17832 10.6048L2.67362 11.5955C2.21022 11.7304 1.8908 12.163 1.8953 12.6607V13.9862C1.8953 14.5955 2.35419 15.1025 2.94356 15.1025H3.16851C3.29448 13.9025 4.21227 12.949 5.37751 12.8188C6.74969 12.6607 7.98691 13.6839 8.13538 15.1025H15.5632C15.6892 13.9025 16.607 12.949 17.7722 12.8188C19.1444 12.6607 20.3816 13.6839 20.5301 15.1025Z" fill="#484848"/>
<path d="M21.8123 10.6234L21.8979 10.4427L21.8976 10.4426L21.8123 10.6234ZM20.0487 9.79089L19.8776 9.89458L19.9089 9.94605L19.9633 9.97175L20.0487 9.79089ZM22.955 12.4746L22.755 12.4735V12.4746H22.955ZM20.4671 16.0328V15.8328H20.3106L20.273 15.9846L20.4671 16.0328ZM18.6765 17.8839L18.7283 18.0771L18.7287 18.077L18.6765 17.8839ZM15.6307 16.0328L15.8247 15.9841L15.7867 15.8328H15.6307V16.0328ZM8.07239 16.0328V15.8328H7.91594L7.87827 15.9846L8.07239 16.0328ZM6.2818 17.8839L6.33358 18.0771L6.334 18.077L6.2818 17.8839ZM3.23599 16.0328L3.42998 15.9841L3.39203 15.8328H3.23599V16.0328ZM2.43967 10.7025L2.3852 10.5101L2.38496 10.5101L2.43967 10.7025ZM5.79141 9.75368L5.84589 9.94612L5.91163 9.92751L5.95225 9.87256L5.79141 9.75368ZM7.80245 7.03275L7.64166 6.91381L7.64162 6.91388L7.80245 7.03275ZM16.4 6.03275V6.23275L16.4011 6.23275L16.4 6.03275ZM18.492 7.22345L18.3209 7.32692L18.321 7.32714L18.492 7.22345ZM5.65194 17.0281V17.2281L5.65299 17.2281L5.65194 17.0281ZM7.24908 15.3769H7.04908L7.04908 15.3779L7.24908 15.3769ZM18.0466 17.0281V17.2281L18.0477 17.2281L18.0466 17.0281ZM19.6438 15.3769H19.4438L19.4438 15.3779L19.6438 15.3769ZM20.5301 15.1025L20.3311 15.1233L20.3499 15.3025H20.5301V15.1025ZM22.0552 13.9862H22.2552V13.7862H22.0552V13.9862ZM22.0507 13.9862H21.8507V14.1862H22.0507V13.9862ZM22.0507 12.4746L21.8507 12.4725V12.4746H22.0507ZM21.4344 11.47L21.5209 11.2897L21.5198 11.2891L21.4344 11.47ZM19.5538 10.5816L19.4663 10.7614L19.4684 10.7624L19.5538 10.5816ZM19.3603 10.4048L19.5342 10.3059L19.5314 10.3012L19.3603 10.4048ZM17.7317 7.71647L17.56 7.81905L17.5606 7.8201L17.7317 7.71647ZM16.4 6.96298V7.16299L16.4017 7.16298L16.4 6.96298ZM8.51329 7.59554L8.35356 7.47517L8.35235 7.47681L8.51329 7.59554ZM6.41677 10.4374L6.25577 10.3186L6.25281 10.3229L6.41677 10.4374ZM6.17832 10.6048L6.23273 10.7973L6.23498 10.7967L6.17832 10.6048ZM2.67362 11.5955L2.61921 11.4031L2.61772 11.4035L2.67362 11.5955ZM1.8953 12.6607H2.0953L2.09529 12.6588L1.8953 12.6607ZM3.16851 15.1025V15.3025H3.34861L3.36741 15.1234L3.16851 15.1025ZM5.37751 12.8188L5.39972 13.0176L5.4004 13.0175L5.37751 12.8188ZM8.13538 15.1025L7.93646 15.1233L7.95522 15.3025H8.13538V15.1025ZM15.5632 15.1025V15.3025H15.7433L15.7621 15.1234L15.5632 15.1025ZM17.7722 12.8188L17.7944 13.0176L17.7951 13.0175L17.7722 12.8188ZM21.8976 10.4426L20.1341 9.61003L19.9633 9.97175L21.7269 10.8043L21.8976 10.4426ZM23.155 12.4757C23.1599 11.6052 22.6677 10.8072 21.8979 10.4427L21.7267 10.8042C22.3516 11.1001 22.7591 11.7533 22.755 12.4735L23.155 12.4757ZM23.155 13.9862V12.4746H22.755V13.9862H23.155ZM21.007 16.2327C22.212 16.2327 23.155 15.207 23.155 13.9862H22.755C22.755 15.0073 21.9704 15.8328 21.007 15.8328V16.2327ZM20.4671 16.2327H21.007V15.8328H20.4671V16.2327ZM18.7287 18.077C19.6777 17.8204 20.4192 17.0568 20.6612 16.0809L20.273 15.9846C20.0651 16.8227 19.4299 17.473 18.6243 17.6908L18.7287 18.077ZM15.4367 16.0814C15.8089 17.5658 17.2789 18.4656 18.7283 18.0771L18.6247 17.6907C17.4017 18.0185 16.1453 17.2625 15.8247 15.9841L15.4367 16.0814ZM8.07239 16.2327H15.6307V15.8328H8.07239V16.2327ZM6.334 18.077C7.28297 17.8204 8.02447 17.0568 8.26651 16.0809L7.87827 15.9846C7.67042 16.8227 7.03523 17.473 6.2296 17.6908L6.334 18.077ZM3.042 16.0814C3.41425 17.5658 4.88421 18.4656 6.33358 18.0771L6.23002 17.6907C5.00699 18.0185 3.75057 17.2625 3.42998 15.9841L3.042 16.0814ZM2.94806 16.2327H3.23599V15.8328H2.94806V16.2327ZM0.8 13.9862C0.8 15.207 1.74305 16.2327 2.94806 16.2327V15.8328C1.98456 15.8328 1.2 15.0073 1.2 13.9862H0.8ZM0.8 12.6607V13.9862H1.2V12.6607H0.8ZM2.38496 10.5101C1.44441 10.7777 0.8 11.6642 0.8 12.6607H1.2C1.2 11.8339 1.73432 11.1111 2.49439 10.8949L2.38496 10.5101ZM5.73693 9.56124L2.3852 10.5101L2.49415 10.895L5.84589 9.94612L5.73693 9.56124ZM7.64162 6.91388L5.63057 9.63481L5.95225 9.87256L7.96329 7.15163L7.64162 6.91388ZM9.76851 5.83275C8.93499 5.83275 8.14681 6.2309 7.64166 6.91381L7.96325 7.15169C8.39389 6.56949 9.06338 6.23275 9.76851 6.23275V5.83275ZM16.4 5.83275H9.76851V6.23275H16.4V5.83275ZM18.6632 7.11998C18.1779 6.31733 17.3217 5.82771 16.3989 5.83275L16.4011 6.23275C17.1789 6.22849 17.9063 6.64119 18.3209 7.32692L18.6632 7.11998ZM20.2197 9.6872L18.663 7.11976L18.321 7.32714L19.8776 9.89458L20.2197 9.6872ZM5.65194 16.8281C4.88682 16.8281 4.25481 16.1844 4.25481 15.3769H3.85481C3.85481 16.3927 4.65347 17.2281 5.65194 17.2281V16.8281ZM7.04908 15.3779C7.05305 16.1788 6.42244 16.8241 5.65089 16.8281L5.65299 17.2281C6.65405 17.2228 7.4541 16.389 7.44908 15.3759L7.04908 15.3779ZM5.65194 13.9258C6.41707 13.9258 7.04908 14.5694 7.04908 15.3769H7.44908C7.44908 14.3612 6.65042 13.5258 5.65194 13.5258V13.9258ZM4.25481 15.3769C4.25481 14.5694 4.88682 13.9258 5.65194 13.9258V13.5258C4.65347 13.5258 3.85481 14.3612 3.85481 15.3769H4.25481ZM16.2495 15.3769C16.2495 16.3927 17.0481 17.2281 18.0466 17.2281V16.8281C17.2815 16.8281 16.6495 16.1844 16.6495 15.3769H16.2495ZM18.0466 13.5258C17.0481 13.5258 16.2495 14.3612 16.2495 15.3769H16.6495C16.6495 14.5694 17.2815 13.9258 18.0466 13.9258V13.5258ZM19.8438 15.3769C19.8438 14.3612 19.0451 13.5258 18.0466 13.5258V13.9258C18.8117 13.9258 19.4438 14.5694 19.4438 15.3769H19.8438ZM18.0477 17.2281C19.0487 17.2228 19.8488 16.389 19.8438 15.3759L19.4438 15.3779C19.4477 16.1788 18.8171 16.8241 18.0456 16.8281L18.0477 17.2281ZM21.007 14.9025H20.5301V15.3025H21.007V14.9025ZM21.8552 13.9862C21.8552 14.4993 21.4721 14.9025 21.007 14.9025V15.3025C21.7205 15.3025 22.2552 14.6918 22.2552 13.9862H21.8552ZM22.0507 14.1862H22.0552V13.7862H22.0507V14.1862ZM21.8507 12.4746V13.9862H22.2507V12.4746H21.8507ZM21.3478 11.6503C21.6544 11.7974 21.8544 12.1162 21.8507 12.4725L22.2507 12.4767C22.256 11.9679 21.9701 11.5053 21.5209 11.2897L21.3478 11.6503ZM19.4684 10.7624L21.3489 11.6508L21.5198 11.2891L19.6392 10.4007L19.4684 10.7624ZM19.1865 10.5037C19.2546 10.6235 19.3597 10.7096 19.4663 10.7614L19.6413 10.4017C19.5949 10.3792 19.556 10.3444 19.5342 10.3059L19.1865 10.5037ZM17.5606 7.8201L19.1893 10.5085L19.5314 10.3012L17.9028 7.61284L17.5606 7.8201ZM16.4017 7.16298C16.8702 7.15894 17.3128 7.4052 17.56 7.81905L17.9034 7.6139C17.5838 7.07891 17.0096 6.75772 16.3983 6.76299L16.4017 7.16298ZM9.76851 7.16298H16.4V6.76298H9.76851V7.16298ZM8.67302 7.71591C8.93735 7.36513 9.34205 7.16298 9.76851 7.16298V6.76298C9.21419 6.76298 8.6921 7.02595 8.35357 7.47518L8.67302 7.71591ZM6.57771 10.5561L8.67424 7.71427L8.35235 7.47681L6.25583 10.3187L6.57771 10.5561ZM6.23498 10.7967C6.36719 10.7576 6.49302 10.6775 6.58072 10.5519L6.25281 10.3229C6.22354 10.3648 6.17842 10.3963 6.12167 10.413L6.23498 10.7967ZM2.72802 11.788L6.23273 10.7973L6.12392 10.4124L2.61922 11.4031L2.72802 11.788ZM2.09529 12.6588C2.09158 12.2485 2.3543 11.8968 2.72952 11.7876L2.61772 11.4035C2.06615 11.5641 1.69002 12.0775 1.6953 12.6625L2.09529 12.6588ZM2.0953 13.9862V12.6607H1.6953V13.9862H2.0953ZM2.94356 14.9025C2.47837 14.9025 2.0953 14.4993 2.0953 13.9862H1.6953C1.6953 14.6918 2.23002 15.3025 2.94356 15.3025V14.9025ZM3.16851 14.9025H2.94356V15.3025H3.16851V14.9025ZM5.35529 12.62C4.09197 12.7612 3.10488 13.793 2.9696 15.0816L3.36741 15.1234C3.48408 14.012 4.33257 13.1368 5.39972 13.0176L5.35529 12.62ZM8.33429 15.0817C8.17486 13.5583 6.84315 12.4486 5.35461 12.6201L5.4004 13.0175C6.65624 12.8728 7.79896 13.8095 7.93646 15.1233L8.33429 15.0817ZM15.5632 14.9025H8.13538V15.3025H15.5632V14.9025ZM17.75 12.62C16.4867 12.7612 15.4996 13.793 15.3643 15.0816L15.7621 15.1234C15.8788 14.012 16.7273 13.1368 17.7944 13.0176L17.75 12.62ZM20.729 15.0817C20.5695 13.5583 19.2378 12.4486 17.7493 12.6201L17.7951 13.0175C19.0509 12.8728 20.1936 13.8095 20.3311 15.1233L20.729 15.0817Z" fill="#484848"/>
</g>
</g>
</g>
</svg>
