<svg width="24" height="24" viewBox="0 0 24 24" fill="none" xmlns="http://www.w3.org/2000/svg">
<g id="Icons/to">
<g id="previous">
<g id="Shape">
<path fill-rule="evenodd" clip-rule="evenodd" d="M11.1478 15.6815C15.7172 15.523 18.3088 13.6739 19.6842 12.1204C21.3938 10.1884 22.0039 7.92117 22 6.43974C22 6.2415 21.8562 6.06488 21.6464 6.01442C21.6075 6.0036 21.5648 6 21.526 6C21.355 6 21.1957 6.0829 21.1102 6.22348C18.6896 10.1848 14.128 10.3902 11.144 10.401V7.53549C11.144 7.36248 11.0391 7.20749 10.872 7.1354C10.7049 7.05971 10.5106 7.08494 10.3669 7.19307L3.17096 12.7187C3.06217 12.8016 3 12.9241 3 13.0575C3 13.1873 3.06605 13.3134 3.17485 13.3963L10.3707 18.9003C10.5106 19.0085 10.7088 19.0301 10.8759 18.958C11.0429 18.8859 11.1478 18.7273 11.1478 18.5579V15.6815ZM10.3319 11.1544C10.4213 11.2373 10.5417 11.2841 10.6699 11.2841C13.4403 11.2841 17.8503 11.2805 20.7955 8.16267C20.0534 10.8804 17.5045 14.748 10.666 14.8093C10.4057 14.8129 10.1959 15.0111 10.1959 15.2526V17.6207L4.22781 13.0539L10.192 8.47265V10.8408C10.192 10.9597 10.2425 11.0715 10.3319 11.1544Z" fill="#484848"/>
<path d="M19.6842 12.1204L19.7966 12.2198L19.7965 12.2198L19.6842 12.1204ZM11.1478 15.6815H10.9978V15.5367L11.1426 15.5316L11.1478 15.6815ZM22 6.43974L21.85 6.44014V6.43974H22ZM21.6464 6.01442L21.6113 6.16035L21.6062 6.15893L21.6464 6.01442ZM21.1102 6.22348L21.2384 6.30141L21.2382 6.30169L21.1102 6.22348ZM11.144 10.401L11.1445 10.551L10.994 10.5516V10.401H11.144ZM10.872 7.1354L10.8125 7.27315L10.8101 7.27203L10.872 7.1354ZM10.3669 7.19307L10.2755 7.0741L10.2767 7.0732L10.3669 7.19307ZM3.17096 12.7187L3.26232 12.8377L3.26188 12.838L3.17096 12.7187ZM3.17485 13.3963L3.26576 13.277L3.26598 13.2772L3.17485 13.3963ZM10.3707 18.9003L10.4619 18.7812L10.4625 18.7816L10.3707 18.9003ZM10.8759 18.958L10.8164 18.8203V18.8203L10.8759 18.958ZM10.3319 11.1544L10.4339 11.0444V11.0444L10.3319 11.1544ZM20.7955 8.16267L20.6864 8.05966L20.9402 8.20218L20.7955 8.16267ZM10.666 14.8093L10.664 14.6593L10.6647 14.6593L10.666 14.8093ZM10.1959 17.6207H10.3459V17.9244L10.1047 17.7399L10.1959 17.6207ZM4.22781 13.0539L4.13666 13.173L3.98127 13.0541L4.13644 12.9349L4.22781 13.0539ZM10.192 8.47265L10.1006 8.35369L10.342 8.16829V8.47265H10.192ZM19.7965 12.2198C18.3956 13.8021 15.7661 15.6713 11.153 15.8315L11.1426 15.5316C15.6682 15.3746 18.222 13.5456 19.5719 12.0209L19.7965 12.2198ZM22.15 6.43935C22.154 7.95577 21.5317 10.259 19.7966 12.2198L19.5719 12.0209C21.256 10.1178 21.8538 7.88657 21.85 6.44014L22.15 6.43935ZM21.6815 5.86858C21.9529 5.93385 22.15 6.16636 22.15 6.43974H21.85C21.85 6.31664 21.7595 6.19591 21.6113 6.16026L21.6815 5.86858ZM21.526 5.85C21.5727 5.85 21.6301 5.85419 21.6866 5.86991L21.6062 6.15893C21.585 6.15302 21.5569 6.15 21.526 6.15V5.85ZM20.982 6.14554C21.0974 5.95586 21.3079 5.85 21.526 5.85V6.15C21.4021 6.15 21.294 6.20995 21.2384 6.30141L20.982 6.14554ZM11.1434 10.251C14.1353 10.2402 18.6096 10.0279 20.9822 6.14526L21.2382 6.30169C18.7695 10.3416 14.1208 10.5402 11.1445 10.551L11.1434 10.251ZM11.294 7.53549V10.401H10.994V7.53549H11.294ZM10.9314 6.99767C11.1502 7.09207 11.294 7.29912 11.294 7.53549H10.994C10.994 7.42584 10.9279 7.32291 10.8126 7.27313L10.9314 6.99767ZM10.2767 7.0732C10.4627 6.93326 10.7151 6.89966 10.9339 6.99877L10.8101 7.27203C10.6947 7.21975 10.5585 7.23661 10.457 7.31295L10.2767 7.0732ZM3.07961 12.5997L10.2755 7.0741L10.4582 7.31204L3.26232 12.8377L3.07961 12.5997ZM2.85 13.0575C2.85 12.8756 2.93546 12.7096 3.08005 12.5994L3.26188 12.838C3.18887 12.8936 3.15 12.9727 3.15 13.0575H2.85ZM3.08393 13.5156C2.94119 13.4069 2.85 13.2381 2.85 13.0575H3.15C3.15 13.1365 3.19091 13.22 3.26576 13.277L3.08393 13.5156ZM10.2796 19.0195L3.08372 13.5155L3.26598 13.2772L10.4619 18.7812L10.2796 19.0195ZM10.9353 19.0957C10.7209 19.1882 10.4644 19.1623 10.279 19.019L10.4625 18.7816C10.5568 18.8546 10.6966 18.872 10.8164 18.8203L10.9353 19.0957ZM11.2978 18.5579C11.2978 18.79 11.1547 19.001 10.9353 19.0957L10.8164 18.8203C10.9311 18.7708 10.9978 18.6646 10.9978 18.5579H11.2978ZM11.2978 15.6815V18.5579H10.9978V15.6815H11.2978ZM10.6699 11.4341C10.5052 11.4341 10.348 11.3739 10.2299 11.2643L10.4339 11.0444C10.4946 11.1007 10.5782 11.1341 10.6699 11.1341V11.4341ZM20.9045 8.26567C17.9086 11.4372 13.4297 11.4341 10.6699 11.4341V11.1341C13.4508 11.1341 17.792 11.1238 20.6864 8.05966L20.9045 8.26567ZM10.6647 14.6593C14.0542 14.6289 16.3664 13.6561 17.9211 12.3667C19.4777 11.0759 20.2861 9.45851 20.6508 8.12315L20.9402 8.20218C20.5627 9.58458 19.7257 11.2599 18.1126 12.5976C16.4978 13.9368 14.1163 14.9284 10.6674 14.9593L10.6647 14.6593ZM10.0459 15.2526C10.0459 14.9192 10.3319 14.6639 10.664 14.6593L10.6681 14.9593C10.4795 14.9619 10.3459 15.1031 10.3459 15.2526H10.0459ZM10.0459 17.6207V15.2526H10.3459V17.6207H10.0459ZM4.31897 12.9348L10.2871 17.5016L10.1047 17.7399L4.13666 13.173L4.31897 12.9348ZM10.2834 8.59161L4.31918 13.1729L4.13644 12.9349L10.1006 8.35369L10.2834 8.59161ZM10.042 10.8408V8.47265H10.342V10.8408H10.042ZM10.2299 11.2643C10.1114 11.1545 10.042 11.0035 10.042 10.8408H10.342C10.342 10.9159 10.3736 10.9885 10.4339 11.0444L10.2299 11.2643Z" fill="#484848"/>
</g>
</g>
</g>
</svg>
