<svg width="24" height="24" viewBox="0 0 24 24" fill="none" xmlns="http://www.w3.org/2000/svg">
<g id="seat">
<g id="Shape">
<path id="Shape_2" fill-rule="evenodd" clip-rule="evenodd" d="M19.1101 16.5734C19.3088 17.2159 19.4198 17.8818 19.4401 18.5534C20.3475 18.7168 21.0053 19.5017 21.0001 20.4147C20.9922 20.7338 20.9064 21.0463 20.7501 21.3255L19.8401 22.8898C19.5111 23.4954 18.8746 23.875 18.1801 23.8798H6.82011C6.1256 23.875 5.48909 23.4954 5.16011 22.8898L4.25011 21.3552C4.0891 21.0672 4.00317 20.7439 4.00011 20.4147C3.99005 19.4979 4.64901 18.7075 5.56011 18.5435C5.58044 17.8719 5.69142 17.206 5.89011 16.5634L6.40011 14.8804C6.60045 14.2018 6.70148 13.4983 6.70011 12.7914V8.93025C6.71553 8.12627 6.86417 7.33025 7.14011 6.57396V6.41555C7.3918 5.60936 8.14783 5.06208 9.00011 5.0691H10.1801V4.32657C9.97767 4.3154 9.78757 4.22663 9.65011 4.07906C9.49939 3.91964 9.42955 3.7013 9.46011 3.48504L9.76011 0.802034C9.80124 0.412212 10.1342 0.116787 10.5301 0.118908H14.4701C14.866 0.116787 15.199 0.412212 15.2401 0.802034L15.5401 3.48504C15.5707 3.7013 15.5008 3.91964 15.3501 4.07906C15.2078 4.23136 15.0096 4.32057 14.8001 4.32657V5.0691H16.0001C16.8509 5.0599 17.6052 5.6089 17.8501 6.41555L17.9101 6.57396C18.169 7.33308 18.3008 8.12902 18.3001 8.93025V12.8013C18.2988 13.5082 18.3998 14.2117 18.6001 14.8903L19.1101 16.5734ZM17.1801 6.83137L17.1201 6.67296L17.1001 6.65316C16.9412 6.18561 16.4984 5.87078 16.0001 5.87103H15.5901V19.6821H16.2001L16.8001 19.088C17.1574 18.7324 17.6434 18.5328 18.1501 18.5336H18.6701C18.6401 17.9463 18.5394 17.3647 18.3701 16.8011L17.8601 15.118C17.6368 14.3689 17.5223 13.5922 17.5201 12.8112V8.95005C17.5228 8.23031 17.4079 7.51486 17.1801 6.83137ZM9.00011 20.4345H16.0001V23.1175H9.00011V20.4345ZM10.1801 10.4648H14.8001L14.8201 5.87103H10.1801V10.4648ZM10.1601 11.237H14.8001V19.6623H10.1801L10.1601 11.237ZM14.4501 0.881238H10.5101L10.2301 3.56424H14.7501L14.4501 0.881238ZM11.0001 4.33647H14.1001V5.0691H11.0001V4.33647ZM6.82011 23.1472H8.24011V20.2365L7.64011 19.6425C7.43144 19.4263 7.14215 19.3046 6.84011 19.3059H5.90011C5.2689 19.3113 4.76009 19.8194 4.76011 20.4444C4.75865 20.6392 4.81048 20.8308 4.91011 20.9988L5.82011 22.573C6.02184 22.9315 6.40563 23.1519 6.82011 23.1472ZM8.20011 19.0682C7.84034 18.7102 7.35024 18.5104 6.84011 18.5138H6.33011C6.36009 17.9265 6.4608 17.3449 6.63011 16.7813L7.13011 15.1081C7.36083 14.357 7.47875 13.5764 7.48011 12.7914V8.93025C7.47747 8.21051 7.59228 7.49506 7.82011 6.81157L7.88011 6.65316C8.04134 6.17862 8.49449 5.86217 9.00011 5.87103H9.43011V19.6623H8.80011L8.20011 19.0682ZM19.1701 22.5433L20.0801 20.9691C20.1797 20.8011 20.2316 20.6095 20.2301 20.4147C20.2301 19.7897 19.7213 19.2816 19.0901 19.2762H18.1601C17.8548 19.2733 17.5619 19.3951 17.3501 19.6128L16.7501 20.2068V23.1175H18.1701C18.5846 23.1222 18.9684 22.9018 19.1701 22.5433Z" fill="#484848"/>
<path id="Shape_3" fill-rule="evenodd" clip-rule="evenodd" d="M6.81951 23.9986H18.1795C18.9295 24.0267 19.6323 23.6368 19.9995 22.9887L20.8895 21.4146C21.0577 21.111 21.1471 20.7708 21.1495 20.4245C21.1728 19.4807 20.5198 18.6519 19.5895 18.4444C19.5619 17.793 19.451 17.1476 19.2595 16.5238L18.7495 14.8506C18.5507 14.1819 18.4496 13.4884 18.4495 12.7913V8.93017C18.4503 8.11599 18.3186 7.307 18.0595 6.53427L17.9995 6.37587C17.7317 5.51395 16.9095 4.94005 15.9995 4.97991H14.9595V4.43539C15.1547 4.40639 15.3325 4.30782 15.4595 4.15818C15.6293 3.96837 15.7125 3.71766 15.6895 3.46515L15.3795 0.782148C15.3284 0.334533 14.9445 -0.00283356 14.4895 1.79417e-05H10.5495C10.0945 -0.00283356 9.71062 0.334533 9.65951 0.782148L9.35951 3.46515C9.32877 3.71674 9.40893 3.96924 9.57951 4.15818C9.70649 4.30782 9.88429 4.40639 10.0795 4.43539V4.97991H8.99951C8.08955 4.94005 7.26732 5.51395 6.99951 6.37587V6.53427C6.73025 7.30534 6.58843 8.11437 6.57951 8.93017V12.8111C6.57938 13.5082 6.47835 14.2017 6.27951 14.8704L5.76951 16.5436C5.57805 17.1674 5.46717 17.8128 5.43951 18.4642C4.50921 18.6717 3.85621 19.5005 3.87951 20.4443C3.88196 20.7906 3.97131 21.1308 4.13951 21.4344L5.04951 23.0085C5.41347 23.6329 6.09146 24.0122 6.81951 23.9986ZM7.25951 6.45507C7.50494 5.71245 8.21039 5.21473 8.99951 5.22742H10.3095V4.23738H10.1895C10.0189 4.22486 9.85881 4.1509 9.73951 4.02948C9.61774 3.89043 9.55979 3.70755 9.57951 3.52456L9.87951 0.841551C9.9197 0.515654 10.1979 0.269883 10.5295 0.267328H14.4695C14.8011 0.269883 15.0793 0.515654 15.1195 0.841551L15.4195 3.52456C15.4361 3.69959 15.3808 3.87387 15.266 4.00801C15.1512 4.14215 14.9866 4.22483 14.8095 4.23738H14.6895V5.22742H15.9995C16.7886 5.21473 17.4941 5.71245 17.7395 6.45507L17.7895 6.61348C18.0411 7.36047 18.1694 8.14274 18.1695 8.93017V12.8408C18.1723 13.5612 18.2767 14.2776 18.4795 14.9694L18.9895 16.6228C19.1839 17.2663 19.2948 17.9316 19.3195 18.6028V18.7018H19.4195C20.2642 18.8627 20.8759 19.5927 20.8795 20.4443C20.8759 20.7534 20.7933 21.0565 20.6395 21.3255L19.7295 22.8897C19.4152 23.4452 18.8226 23.7896 18.1795 23.7906H6.81951C6.17639 23.7896 5.58384 23.4452 5.26951 22.8897L4.35951 21.2957C4.2057 21.0268 4.12314 20.7237 4.11951 20.4146C4.1222 19.5661 4.72881 18.8371 5.56951 18.6721H5.66951V18.5731C5.69554 17.9021 5.8064 17.2369 5.99951 16.5931L6.50951 14.9694C6.72546 14.2633 6.83333 13.5291 6.82951 12.7913V8.93017C6.8457 8.14003 6.99091 7.35769 7.25951 6.61348V6.45507ZM19.2795 22.6026C19.0586 22.9982 18.636 23.2416 18.1795 23.2362H16.6195V20.1572L17.2595 19.5236C17.4979 19.2871 17.8221 19.1551 18.1595 19.1573H19.0895C19.4254 19.1573 19.7474 19.29 19.984 19.5261C20.2206 19.7622 20.3522 20.0821 20.3495 20.4146C20.3475 20.6322 20.2926 20.8462 20.1895 21.0383L19.2795 22.6026ZM18.1995 22.9887H16.8995L16.9195 20.276L17.4795 19.7216C17.669 19.5302 17.9288 19.423 18.1995 19.4246H19.1295C19.6818 19.4246 20.1295 19.8678 20.1295 20.4146C20.1307 20.588 20.0859 20.7588 19.9995 20.9096L19.0795 22.4838C18.901 22.7983 18.5638 22.9917 18.1995 22.9887ZM16.1195 23.2362H8.89951V20.2661H16.0995L16.1195 23.2362ZM15.8195 22.9887H9.11951L9.14951 20.5532H15.8195V22.9887ZM8.34951 23.2362H6.81951C6.36298 23.2416 5.94039 22.9982 5.71951 22.6026L4.80951 21.0284C4.70648 20.8398 4.65156 20.6291 4.64951 20.4146C4.64949 19.724 5.21202 19.1627 5.90951 19.1573H6.84951C7.18349 19.1578 7.5036 19.2895 7.73951 19.5236L8.37951 20.1572L8.34951 23.2362ZM4.90951 20.3948C4.90951 19.848 5.35723 19.4048 5.90951 19.4048H6.80951C7.07676 19.4059 7.33244 19.5128 7.51951 19.7018L8.08951 20.2562V22.9887H6.78951C6.42517 22.9917 6.08803 22.7983 5.90951 22.4838L4.99951 20.9096C4.92349 20.7491 4.89241 20.5713 4.90951 20.3948ZM16.2595 19.7909H15.4695V5.74224H15.9995C16.5538 5.74048 17.0463 6.09217 17.2195 6.61348L17.2695 6.77188C17.5079 7.46698 17.6295 8.19609 17.6295 8.93017V12.7913C17.6421 13.564 17.7667 14.3308 17.9995 15.0684L18.5095 16.7416C18.6805 17.315 18.7812 17.9066 18.8095 18.5038V18.6424H18.1695C17.6937 18.6391 17.2363 18.8245 16.8995 19.1573L16.2595 19.7909ZM16.1495 19.5434H15.7195L15.6995 5.98975H15.9995C16.4559 5.97044 16.8675 6.25975 16.9995 6.69268L17.0595 6.85109C17.2817 7.52232 17.3964 8.22382 17.3995 8.93017V12.7913C17.3974 13.5856 17.512 14.376 17.7395 15.1377L18.2495 16.8208C18.4083 17.3324 18.5056 17.8608 18.5395 18.3949H18.1595C17.6174 18.3932 17.0964 18.603 16.7095 18.9791L16.1495 19.5434ZM14.9395 19.7909H10.0595V11.1083H14.9395V19.7909ZM14.6895 19.5434H10.3095V11.3558H14.6895V19.5434ZM9.52951 19.7909H8.73951L8.10951 19.1573C7.7727 18.8245 7.31533 18.6391 6.83951 18.6424H6.19951V18.5137C6.22697 17.9132 6.32771 17.3182 6.49951 16.7416L6.99951 15.0684C7.21879 14.3289 7.32992 13.5621 7.32951 12.7913V8.93017C7.3295 8.19609 7.45111 7.46698 7.68951 6.77188V6.61348C7.8719 6.0594 8.41245 5.6999 8.99951 5.74224H9.54951L9.52951 19.7909ZM9.27951 19.5434H8.84951L8.28951 18.9791C7.90264 18.603 7.38165 18.3932 6.83951 18.3949H6.45951C6.49823 17.8614 6.59547 17.3335 6.74951 16.8208L7.24951 15.1377C7.48447 14.3774 7.60246 13.5864 7.59951 12.7913V8.93017C7.60263 8.22382 7.71735 7.52232 7.93951 6.85109L7.99951 6.69268C8.13156 6.25975 8.54314 5.97044 8.99951 5.98975H9.27951V19.5434ZM14.9395 10.633H10.0595V5.74224H14.9395V10.633ZM14.6895 10.3855H10.3095V5.98975H14.6895V10.3855ZM14.1695 5.26702H10.8295V4.27699H14.1695V5.26702ZM13.9195 5.01951H11.0795V4.45519H13.9195V5.01951ZM14.9095 3.73246H10.0895L10.4195 0.762348H14.5795L14.9095 3.73246ZM14.6295 3.48495H10.3695L10.6395 1.00986H14.3595L14.6295 3.48495Z" fill="#484848"/>
</g>
</g>
</svg>
