<svg width="24" height="24" viewBox="0 0 24 24" fill="none" xmlns="http://www.w3.org/2000/svg">
<g id="car book">
<g id="magazines">
<path id="Shape" fill-rule="evenodd" clip-rule="evenodd" d="M18.4166 4.90216H17.1631V3.59474C17.1631 3.41989 17.0893 3.25401 16.9613 3.14093C16.8333 3.02794 16.664 2.97933 16.4987 3.00811L5.54332 4.91025C5.26811 4.95806 5.06641 5.2061 5.06641 5.49687V20.3812C5.06641 20.7096 5.32191 20.9759 5.63706 20.9759H18.4165C18.7318 20.9759 18.9872 20.7096 18.9872 20.3812V5.49687C18.9873 5.16843 18.7318 4.90216 18.4166 4.90216ZM6.20779 6.00071L16.0218 4.29674V17.9762L6.20779 19.6793V6.00071ZM12.5384 19.7865H17.846H17.846V6.09159H17.1632V18.48C17.1632 18.7708 16.9614 19.0189 16.6862 19.0667L12.5384 19.7865Z" fill="#484848"/>
<path id="Path" fill-rule="evenodd" clip-rule="evenodd" d="M13.9766 6.96498L8.08105 7.91652C7.76963 7.96679 7.55628 8.27065 7.60444 8.59521C7.64812 8.88899 7.89106 9.09897 8.16764 9.09897C8.19663 9.09897 8.22615 9.09667 8.25567 9.09191L14.1511 8.14037C14.4626 8.0901 14.676 7.78624 14.6278 7.4616C14.5796 7.13713 14.2881 6.9147 13.9766 6.96498Z" fill="#484848"/>
</g>
</g>
</svg>
