<svg width="24" height="24" viewBox="0 0 24 24" fill="none" xmlns="http://www.w3.org/2000/svg">
<g id="Icons/Model">
<g id="38_windshield">
<path id="Shape" fill-rule="evenodd" clip-rule="evenodd" d="M2.45936 18.1117C5.05759 18.6602 8.49108 18.9624 12.1274 18.9624C15.7645 18.9624 19.198 18.6602 21.7947 18.1113C22.4544 17.9726 22.9115 17.3985 22.8824 16.7449C22.7467 13.7292 21.4991 9.09364 19.9255 7.26353C19.748 7.05625 19.5131 6.90747 19.2457 6.83272C17.3265 6.29539 14.7987 6 12.1282 6C9.45759 6 6.92983 6.29539 5.00912 6.83308C4.74176 6.90783 4.5061 7.05733 4.33047 7.26281C2.75617 9.094 1.50776 13.7296 1.37241 16.7456C1.34332 17.3985 1.80047 17.973 2.45936 18.1117ZM5.39132 8.11322C7.19085 7.61019 9.58325 7.33286 12.1282 7.33286C14.6731 7.33286 17.0651 7.61019 18.8669 8.11611C20.204 9.67069 21.3842 14.0629 21.502 16.8088C18.9978 17.3374 15.6687 17.6292 12.1274 17.6292C8.58691 17.6292 5.25746 17.3374 2.74834 16.8026C2.87102 14.0622 4.05119 9.67069 5.39132 8.11322Z" fill="#484848"/>
<path id="Path" fill-rule="evenodd" clip-rule="evenodd" d="M7.17299 14.87C6.99662 14.87 6.82062 14.805 6.68601 14.675C6.41716 14.4142 6.41716 13.9925 6.68601 13.7321L12.2401 8.35372C12.5089 8.09336 12.9452 8.09336 13.214 8.35372C13.4829 8.61444 13.4829 9.03622 13.214 9.29658L7.65998 14.675C7.52537 14.8053 7.34937 14.87 7.17299 14.87Z" fill="#484848"/>
<path id="Path_2" fill-rule="evenodd" clip-rule="evenodd" d="M6.47768 12.2472C6.30131 12.2472 6.12531 12.1822 5.9907 12.0522C5.72185 11.7915 5.72185 11.3697 5.9907 11.1094L8.19182 8.97774C8.46066 8.71738 8.89694 8.71738 9.16541 8.97774C9.43426 9.23846 9.43426 9.66024 9.16541 9.9206L6.96429 12.0522C6.83005 12.1822 6.65405 12.2472 6.47768 12.2472Z" fill="#484848"/>
</g>
</g>
</svg>
